<svg width="309" height="199" viewBox="0 0 309 199" fill="none" xmlns="http://www.w3.org/2000/svg">
<path fill-rule="evenodd" clip-rule="evenodd" d="M41 21C41 27.6274 35.6274 33 29 33V159C35.6274 159 41 164.373 41 171H268C268 164.373 273.373 159 280 159V33C273.373 33 268 27.6274 268 21C268 20.6632 268.014 20.3297 268.041 20H40.9589C40.9861 20.3297 41 20.6632 41 21Z" fill="url(#paint0_radial)"/>
<path d="M161.172 93.4727L294.543 106.098C296.606 99.9258 297.758 93.8468 298 87.8613L161.172 93.4727Z" fill="url(#paint1_radial)"/>
<path d="M28.4155 29C22.5233 35.9085 17.3163 43.2606 13 50.993L13.2055 50.6761L154 92L28.4155 29Z" fill="url(#paint2_radial)"/>
<path d="M296 129.742L295.803 130.019L161 94L281.197 149C286.855 142.951 291.855 136.513 296 129.742Z" fill="url(#paint3_radial)"/>
<path d="M154.192 93.4727L20.4571 80.7067C18.395 86.8793 17.2426 92.9583 17 98.9438L154.192 93.4727Z" fill="url(#paint4_radial)"/>
<path d="M153.889 185.827L157.224 96.5122L126.596 185.126C135.875 185.968 145.216 186.201 154.374 185.827H153.889Z" fill="url(#paint5_radial)"/>
<path d="M207.626 176.756L159.045 96.3251L182.335 182.835C191.19 181.291 199.742 179.234 208.051 176.662L207.626 176.756Z" fill="url(#paint6_radial)"/>
<path d="M271.562 168.663L161 96L246.733 183C255.715 178.699 264.186 173.824 272 168.49L271.562 168.663Z" fill="url(#paint7_radial)"/>
<path d="M26.2135 133.688L153.823 94.5482L19.1779 117.415L19.0566 117.134C20.6336 122.886 23.0596 128.404 26.2135 133.688Z" fill="url(#paint8_radial)"/>
<path d="M161 92L286.668 31.2857L287 31.4958C281.886 26.2437 275.908 21.4118 269.332 17L161 92Z" fill="url(#paint9_radial)"/>
<path d="M107.372 10.0495L156.62 90.7137L132.663 3.97046C123.808 5.5136 115.256 7.57112 106.947 10.143L107.372 10.0495Z" fill="url(#paint10_radial)"/>
<path d="M155.045 96.7928L75.7136 172.968L75.2891 172.828C82.5672 175.867 90.3912 178.439 98.761 180.497L155.045 96.7928Z" fill="url(#paint11_radial)"/>
<path d="M154 96L19.3536 157.442L19 157.228C24.4453 162.58 30.8098 167.504 37.8109 172L154 96Z" fill="url(#paint12_radial)"/>
<path d="M161.045 0.930945L158.438 90.4799L188.399 1.63237C179.12 0.790659 169.779 0.55685 160.621 0.930945H161.045Z" fill="url(#paint13_radial)"/>
<path d="M64.185 4.00003C54.8765 8.24255 46.0977 13.0507 38 18.3115L38.4541 18.1418L155 91L64.185 4.00003Z" fill="url(#paint14_radial)"/>
<path d="M295.749 69.3903L295.871 69.6241C294.294 63.9192 291.868 58.3545 288.714 53.1172L161.832 92.6777L295.749 69.3903Z" fill="url(#paint15_radial)"/>
<path d="M160.264 90.7605L239.292 13.7905L239.716 13.9308C232.438 10.8912 224.614 8.31933 216.245 6.26181L160.264 90.7605Z" fill="url(#paint16_radial)"/>
<path d="M154.087 113.504L173.134 139.031L192.181 164.559H154.087H115.889L135.04 139.031L154.087 113.504Z" fill="#2B2B2B"/>
<path opacity="0.74" d="M173.135 139.031L154.088 113.504L135.041 139.031L115.994 164.559H154.088H192.182L173.135 139.031ZM117.669 163.722L135.878 138.927L154.088 114.55L172.297 138.927L190.507 163.722H154.088H117.669Z" fill="url(#paint17_radial)"/>
<path d="M197.415 164.559H110.553V170.522H197.415V164.559Z" fill="#2B2B2B"/>
<path opacity="0.4" d="M110.553 164.559V170.522H197.415V164.559H110.553ZM196.264 169.476H111.809V165.396H196.264V169.476Z" fill="url(#paint18_linear)"/>
<path d="M153.355 157.026C126.354 157.026 104.482 150.226 104.377 141.961C104.377 133.696 126.249 126.895 153.25 127C180.25 127 202.123 133.8 202.228 142.065C202.332 150.33 180.355 157.026 153.355 157.026Z" fill="#ACACAC"/>
<path d="M153.354 159.956C128.342 159.956 108.144 150.853 108.039 139.554C108.039 128.36 128.342 119.258 153.249 119.258C178.261 119.258 198.459 128.36 198.564 139.659C198.669 150.958 178.366 159.956 153.354 159.956Z" fill="#E1DFDF"/>
<path d="M164.555 43.5121C171.671 44.9768 178.055 47.8016 183.602 51.6725C189.148 55.5435 193.962 60.4607 197.625 66.0056C201.288 71.5506 203.904 77.9325 205.16 84.5236C206.521 91.2194 206.521 98.229 205.056 105.239C203.59 112.353 200.765 118.735 196.893 124.28C193.02 129.825 188.102 134.637 182.555 138.299C177.009 141.961 170.625 144.576 164.032 145.832C157.334 147.192 150.322 147.192 143.31 145.727C136.194 144.262 129.81 141.438 124.263 137.567C118.717 133.696 113.903 128.778 110.24 123.233C106.577 117.689 103.961 111.307 102.705 104.715C101.344 98.0197 101.344 91.0101 102.81 84.0005C104.275 76.8862 107.1 70.5044 110.972 64.9594C114.845 59.4145 119.763 54.6019 125.31 50.9402C130.857 47.2784 137.24 44.6629 143.834 43.4075C150.427 42.152 157.438 42.0474 164.555 43.5121Z" fill="#FFF6E3"/>
<path d="M152.516 94.1488L110.655 65.2733C106.887 70.7136 104.166 76.9909 102.701 83.7913L152.516 94.1488Z" fill="#F71C28"/>
<path d="M153.25 93.3118L143.412 43.5121C136.924 44.8722 130.854 47.3831 125.412 50.8356L153.25 93.3118Z" fill="#F71C28"/>
<path d="M154.4 93.4164L183.285 51.5679C177.843 47.8016 171.563 45.0814 164.761 43.6167L154.4 93.4164Z" fill="#F71C28"/>
<path d="M154.4 96.1366L164.238 145.936C170.726 144.576 176.796 142.065 182.238 138.613L154.4 96.1366Z" fill="#F71C28"/>
<path d="M155.238 95.2996L197.099 124.175C200.867 118.735 203.588 112.457 205.053 105.657L155.238 95.2996Z" fill="#F71C28"/>
<path d="M155.238 94.1488L205.053 84.3144C203.693 77.8279 201.181 71.7598 197.727 66.3195L155.238 94.1488Z" fill="#F71C28"/>
<path d="M153.251 96.0319L124.367 137.88C129.809 141.647 136.088 144.367 142.891 145.832L153.251 96.0319Z" fill="#F71C28"/>
<path d="M152.413 95.2996L102.598 105.134C103.958 111.621 106.47 117.689 109.923 123.129L152.413 95.2996Z" fill="#F71C28"/>
<path opacity="0.78" d="M153.669 148.552C124.785 148.447 101.447 124.384 101.447 94.6719C101.447 64.9594 124.785 40.8966 153.669 41.0012C182.449 41.0012 205.891 65.1687 205.891 94.8811C205.891 124.594 182.449 148.552 153.669 148.552Z" fill="url(#paint19_radial)"/>
<path d="M212.274 96.8689C212.588 88.8131 211.227 81.0711 208.506 73.9569C205.785 66.8426 201.809 60.4607 196.681 54.9158C191.553 49.4755 185.483 44.9768 178.576 41.7335C171.668 38.4903 164.029 36.6071 155.971 36.2932C147.912 35.9794 140.168 37.3394 133.052 40.0596C125.935 42.7797 119.551 46.7553 114.005 51.8818C108.563 57.0082 104.063 63.0763 100.818 69.9813C97.5742 76.8863 95.6904 84.5236 95.3764 92.5794C95.0625 100.635 96.423 108.377 99.144 115.491C101.865 122.606 105.842 128.988 110.97 134.533C116.098 139.973 122.168 144.472 129.075 147.715C135.982 150.958 143.621 152.841 151.68 153.155C159.738 153.469 167.482 152.109 174.599 149.389C181.715 146.669 188.099 142.693 193.646 137.567C199.088 132.44 203.588 126.372 206.832 119.467C209.971 112.562 211.96 104.925 212.274 96.8689ZM199.611 116.015C196.89 121.978 192.913 127.209 188.204 131.603C183.494 135.997 177.948 139.45 171.773 141.856C165.703 144.158 159.005 145.309 151.994 145.099C144.982 144.89 138.493 143.216 132.528 140.391C126.563 137.671 121.33 133.696 116.935 128.988C112.54 124.28 109.086 118.735 106.679 112.562C104.377 106.494 103.225 99.7983 103.435 92.7887C103.644 85.8837 105.318 79.2925 108.144 73.3291C110.865 67.3657 114.842 62.1347 119.551 57.7406C124.261 53.3465 129.807 49.894 135.982 47.4877C142.052 45.186 148.749 44.0352 155.761 44.2444C162.668 44.4537 169.261 46.1276 175.227 48.9524C181.192 51.6725 186.425 55.6482 190.82 60.3561C195.215 65.0641 198.669 70.609 201.076 76.7816C203.378 82.8497 204.53 89.5454 204.32 96.555C204.006 103.46 202.332 110.051 199.611 116.015Z" fill="url(#paint20_linear)"/>
<path d="M211.123 83.1635C209.553 75.2123 206.414 68.0981 202.123 61.8208C197.832 55.5435 192.39 50.2078 186.216 46.1276C179.936 41.9428 172.925 39.0134 165.494 37.5487C158.064 36.084 150.215 35.9794 142.261 37.5487C134.308 39.118 127.191 42.2566 120.912 46.5461C114.633 50.8356 109.296 56.2759 105.214 62.4485C101.028 68.7258 98.0977 75.7354 96.6326 83.1635C95.1674 90.5916 95.0628 98.4382 96.6326 106.389C98.2024 114.341 101.342 121.455 105.633 127.732C109.924 134.009 115.365 139.345 121.54 143.425C127.819 147.61 134.831 150.54 142.261 152.004C149.692 153.469 157.541 153.574 165.494 152.004C173.448 150.435 180.564 147.296 186.843 143.007C193.123 138.717 198.46 133.277 202.541 127.104C206.728 120.827 209.658 113.818 211.123 106.389C212.588 98.8567 212.693 91.0101 211.123 83.1635ZM210.6 106.18C209.135 113.504 206.204 120.409 202.123 126.581C198.041 132.754 192.809 138.09 186.634 142.379C180.46 146.669 173.343 149.703 165.494 151.272C157.645 152.841 149.901 152.737 142.575 151.272C135.25 149.807 128.342 146.878 122.168 142.798C115.993 138.717 110.656 133.486 106.365 127.314C102.179 121.141 99.0396 114.027 97.4698 106.18C95.9 98.3336 96.0047 90.5916 97.4698 83.2681C98.935 75.9447 101.865 69.0397 105.947 62.867C110.028 56.6944 115.261 51.3587 121.435 47.0692C127.61 42.8844 134.726 39.7457 142.575 38.1764C150.424 36.6071 158.169 36.7117 165.494 38.1764C172.82 39.6411 179.727 42.5705 185.902 46.6507C192.076 50.731 197.413 55.962 201.704 62.1347C205.89 68.3073 209.03 75.4216 210.6 83.2681C212.17 91.1147 212.17 98.8567 210.6 106.18Z" fill="url(#paint21_linear)"/>
<path d="M196.578 123.024C200.241 117.584 202.753 111.411 204.113 104.925C205.474 98.4382 205.474 91.5332 204.113 84.6282C202.753 77.7232 199.927 71.3413 196.264 65.901C192.497 60.3561 187.787 55.7528 182.241 52.091C176.799 48.4293 170.624 45.9184 164.136 44.5583C157.647 43.1982 150.74 43.1982 143.833 44.5583C136.926 45.9184 130.542 48.7431 125.1 52.4049C119.553 56.1713 114.949 60.8792 111.286 66.4241C107.623 71.8644 105.111 78.0371 103.751 84.5236C102.39 91.0101 102.39 97.9151 103.751 104.82C105.111 111.725 107.937 118.107 111.6 123.547C115.367 129.092 120.077 133.696 125.623 137.357C131.065 141.019 137.24 143.53 143.728 144.89C150.217 146.25 157.124 146.25 164.031 144.89C170.938 143.53 177.322 140.705 182.764 137.043C188.206 133.277 192.915 128.465 196.578 123.024ZM163.717 143.53C157.019 144.89 150.321 144.785 143.938 143.53C137.554 142.275 131.589 139.764 126.356 136.207C121.019 132.649 116.414 128.151 112.751 122.815C109.088 117.479 106.472 111.307 105.111 104.611C103.751 97.9151 103.855 91.2194 105.111 84.8375C106.367 78.4556 108.879 72.4922 112.437 67.2611C115.995 61.9254 120.495 57.3221 125.833 53.6603C131.17 49.9986 137.344 47.3831 144.042 46.023C150.74 44.6629 157.438 44.7675 163.822 46.023C170.206 47.2785 176.171 49.7894 181.403 53.3465C186.741 56.9036 191.345 61.4023 195.008 66.738C198.671 72.0737 201.287 78.2463 202.648 84.9421C204.008 91.6379 203.904 98.3336 202.648 104.716C201.392 111.097 198.88 117.061 195.322 122.292C191.764 127.628 187.264 132.231 181.927 135.893C176.589 139.45 170.415 142.17 163.717 143.53Z" fill="url(#paint22_linear)"/>
<path d="M153.877 107.017C146.551 107.017 140.586 101.472 140.586 94.6719C140.586 87.8715 146.551 82.3266 153.877 82.3266C161.203 82.3266 167.168 87.8715 167.168 94.6719C167.168 101.577 161.203 107.017 153.877 107.017Z" fill="url(#paint23_radial)"/>
<path d="M162.669 92.8933C162.879 94.1488 162.879 95.2996 162.669 96.4504C162.46 97.6013 161.937 98.6475 161.309 99.5891C160.681 100.531 159.844 101.368 158.902 101.995C157.96 102.623 156.809 103.146 155.657 103.355C154.402 103.565 153.25 103.565 152.099 103.355C150.948 103.146 149.902 102.623 148.96 101.995C148.018 101.368 147.181 100.531 146.553 99.5891C145.925 98.6475 145.401 97.4966 145.192 96.3458C144.983 95.0904 144.983 93.9395 145.192 92.7887C145.401 91.6379 145.925 90.5916 146.553 89.65C147.181 88.7085 148.018 87.8715 148.96 87.2438C149.902 86.616 151.053 86.0929 152.204 85.8837C153.46 85.6744 154.611 85.6744 155.762 85.8837C156.913 86.0929 157.96 86.616 158.902 87.2438C159.844 87.8715 160.681 88.7085 161.309 89.65C161.937 90.5916 162.46 91.7425 162.669 92.8933Z" fill="url(#paint24_radial)"/>
<path d="M151.052 91.2194C151.575 90.8009 152.098 90.5916 152.622 90.3824C153.145 90.2778 153.773 90.1732 154.296 90.2778C154.819 90.3824 155.447 90.487 155.866 90.8009C156.389 91.1147 156.808 91.4286 157.226 91.9517C157.645 92.4748 157.854 92.9979 158.064 93.521C158.168 94.0441 158.273 94.6719 158.168 95.195C158.064 95.7181 157.959 96.3458 157.645 96.7643C157.331 97.2874 157.017 97.7059 156.494 98.1244C155.97 98.5429 155.447 98.7521 154.924 98.9613C154.401 99.066 153.773 99.1706 153.25 99.066C152.726 98.9613 152.098 98.8567 151.68 98.5429C151.156 98.229 150.738 97.9151 150.319 97.392C149.901 96.8689 149.691 96.3458 149.482 95.8227C149.377 95.2996 149.273 94.6719 149.377 94.1488C149.482 93.6257 149.587 92.9979 149.901 92.5794C150.215 92.0563 150.633 91.6379 151.052 91.2194Z" fill="#DC515B"/>
<path opacity="0.58" d="M146.026 90.2778C145.503 91.324 145.084 92.4748 144.875 93.6257C144.771 94.8811 144.875 96.0319 145.189 97.1828C145.503 98.3336 146.026 99.3798 146.759 100.217C147.491 101.158 148.329 101.891 149.375 102.414C150.422 102.937 151.573 103.355 152.724 103.565C153.98 103.669 155.131 103.565 156.282 103.251C157.434 102.937 158.48 102.414 159.317 101.681C160.259 100.949 160.992 100.112 161.515 99.066C162.038 98.0198 162.457 96.8689 162.666 95.7181C162.771 94.4626 162.666 93.3118 162.352 92.161C162.038 91.0101 161.515 89.9639 160.782 89.1269C160.05 88.1854 159.213 87.453 158.166 86.9299C157.12 86.4068 155.968 85.9883 154.817 85.7791C153.561 85.6744 152.41 85.7791 151.259 86.0929C150.108 86.4068 149.061 86.9299 148.224 87.6622C147.387 88.3946 146.55 89.2316 146.026 90.2778ZM148.643 88.1854C149.48 87.5576 150.422 87.0345 151.468 86.7207C152.515 86.4068 153.666 86.3022 154.713 86.4068C155.864 86.5114 156.91 86.9299 157.852 87.453C158.794 87.9761 159.631 88.7085 160.259 89.5454C160.887 90.3824 161.41 91.324 161.724 92.3702C162.038 93.4164 162.143 94.5673 162.038 95.6135C161.934 96.7643 161.515 97.8105 160.992 98.7521C160.468 99.6937 159.736 100.531 158.899 101.158C158.061 101.786 157.12 102.309 156.073 102.623C155.027 102.937 153.875 103.042 152.829 102.937C151.678 102.832 150.631 102.414 149.689 101.891C148.747 101.368 147.91 100.635 147.282 99.7983C146.654 98.9613 146.131 98.0198 145.817 96.9735C145.503 95.9273 145.398 94.7765 145.503 93.7303C145.608 92.5794 146.026 91.5332 146.55 90.5916C147.073 89.6501 147.805 88.9177 148.643 88.1854Z" fill="#BF1419"/>
<path d="M155.867 94.6719C155.867 95.8227 154.926 96.6597 153.879 96.6597C152.728 96.6597 151.891 95.7181 151.891 94.6719C151.891 93.521 152.832 92.6841 153.879 92.6841C154.926 92.6841 155.867 93.6257 155.867 94.6719Z" fill="url(#paint25_radial)"/>
<path d="M156.808 94.358C157.017 95.9273 155.866 97.392 154.192 97.6013C152.517 97.8105 151.052 96.6597 150.843 95.0904C150.634 93.521 151.785 92.0563 153.459 91.8471C155.134 91.6379 156.599 92.7887 156.808 94.358Z" fill="url(#paint26_radial)"/>
<path d="M195.845 59.833C194.275 61.2977 191.659 61.0885 189.984 59.3099C188.31 57.5313 188.205 54.9158 189.775 53.4511C191.345 51.9864 193.961 52.1957 195.636 53.9742C197.31 55.7528 197.415 58.3683 195.845 59.833Z" fill="#5E1B0D"/>
<path d="M194.487 57.8452C193.65 58.6822 192.394 58.5775 191.662 57.8452C190.824 57.0082 190.929 55.7528 191.662 55.0204C192.394 54.2881 193.755 54.2881 194.487 55.0204C195.22 55.8574 195.22 57.1128 194.487 57.8452Z" fill="url(#paint27_radial)"/>
<path d="M195.217 58.0544C194.275 58.996 192.601 58.8914 191.554 57.7406C190.508 56.5897 190.508 55.0204 191.45 54.0788C192.392 53.1372 194.066 53.2419 195.113 54.3927C196.159 55.4389 196.159 57.1128 195.217 58.0544Z" fill="#F3B1B1"/>
<path d="M119.165 52.4657C120.821 53.832 120.954 56.4534 119.408 58.3446C117.862 60.2359 115.282 60.6794 113.626 59.3131C111.97 57.9468 111.837 55.3255 113.383 53.4342C114.929 51.5429 117.509 51.0995 119.165 52.4657Z" fill="#5E1B0D"/>
<path d="M117.373 54.073C118.311 54.7945 118.371 56.0533 117.74 56.8747C117.018 57.8136 115.76 57.8729 114.939 57.2416C114.117 56.6104 113.941 55.2614 114.572 54.4399C115.307 53.6049 116.551 53.4418 117.373 54.073Z" fill="url(#paint28_radial)"/>
<path d="M117.487 53.3193C118.543 54.1309 118.657 55.8048 117.651 56.9919C116.646 58.179 115.09 58.3829 114.034 57.5712C112.978 56.7596 112.865 55.0858 113.87 53.8987C114.771 52.7251 116.431 52.5077 117.487 53.3193Z" fill="#F3B1B1"/>
<path d="M99.0174 86.4269C101.163 86.5164 102.85 88.5264 102.759 90.9675C102.669 93.4085 100.879 95.3193 98.7344 95.2298C96.5892 95.1403 94.9014 93.1303 94.9923 90.6892C95.0832 88.2482 96.8722 86.3373 99.0174 86.4269Z" fill="#5E1B0D"/>
<path d="M98.5598 88.7914C99.7436 88.8 100.551 89.7677 100.544 90.8035C100.535 91.9873 99.5679 92.7942 98.5321 92.7867C97.4962 92.7792 96.5411 91.8104 96.5483 90.7746C96.6299 89.6653 97.524 88.7839 98.5598 88.7914Z" fill="url(#paint29_radial)"/>
<path d="M98.1944 88.1227C99.5262 88.1323 100.627 89.3982 100.542 90.9514C100.458 92.5046 99.3402 93.6063 98.0084 93.5967C96.6766 93.5871 95.5756 92.3212 95.6603 90.768C95.6706 89.2883 96.8626 88.113 98.1944 88.1227Z" fill="#F3B1B1"/>
<path d="M209.601 98.6577C207.509 99.1413 205.348 97.6519 204.787 95.2744C204.226 92.8969 205.443 90.5794 207.535 90.0959C209.627 89.6123 211.788 91.1017 212.349 93.4792C212.91 95.8567 211.693 98.1741 209.601 98.6577Z" fill="#5E1B0D"/>
<path d="M209.415 96.2559C208.271 96.5621 207.236 95.8436 206.968 94.8431C206.661 93.6996 207.38 92.6647 208.38 92.3967C209.381 92.1288 210.559 92.809 210.827 93.8096C211.043 94.9007 210.416 95.9879 209.415 96.2559Z" fill="url(#paint30_radial)"/>
<path d="M209.947 96.8035C208.66 97.148 207.262 96.2201 206.932 94.7002C206.601 93.1803 207.385 91.8212 208.672 91.4767C209.958 91.1322 211.356 92.0601 211.687 93.58C212.07 95.0093 211.233 96.459 209.947 96.8035Z" fill="#F3B1B1"/>
<path d="M189.9 136.585C188.006 135.573 187.359 133.029 188.502 130.87C189.644 128.711 192.086 127.767 193.979 128.779C195.872 129.792 196.519 132.336 195.377 134.495C194.234 136.654 191.793 137.598 189.9 136.585Z" fill="#5E1B0D"/>
<path d="M191.341 134.655C190.279 134.133 189.972 132.911 190.429 131.981C190.95 130.919 192.172 130.612 193.102 131.069C194.032 131.526 194.471 132.813 194.015 133.743C193.459 134.707 192.271 135.112 191.341 134.655Z" fill="url(#paint31_radial)"/>
<path d="M191.378 135.417C190.182 134.829 189.741 133.211 190.492 131.849C191.243 130.486 192.728 129.98 193.923 130.567C195.119 131.154 195.561 132.773 194.809 134.135C194.157 135.463 192.573 136.004 191.378 135.417Z" fill="#F3B1B1"/>
<path d="M110.35 128.381C111.92 126.916 114.537 127.126 116.211 128.904C117.886 130.683 117.99 133.298 116.42 134.763C114.851 136.228 112.234 136.019 110.56 134.24C108.885 132.461 108.781 129.846 110.35 128.381Z" fill="#5E1B0D"/>
<path d="M111.708 130.369C112.545 129.532 113.801 129.637 114.534 130.369C115.371 131.206 115.266 132.461 114.534 133.194C113.801 133.926 112.441 133.926 111.708 133.194C110.976 132.357 110.976 131.101 111.708 130.369Z" fill="url(#paint32_radial)"/>
<path d="M110.976 130.16C111.918 129.218 113.592 129.323 114.639 130.474C115.686 131.624 115.686 133.194 114.744 134.135C113.802 135.077 112.127 134.972 111.081 133.821C110.034 132.775 110.034 131.101 110.976 130.16Z" fill="#F3B1B1"/>
<path d="M158.082 41.6009C157.675 43.7088 155.436 45.0789 153.036 44.6259C150.635 44.1729 149.012 42.1195 149.419 40.0115C149.827 37.9036 152.066 36.5335 154.466 36.9865C156.867 37.4395 158.49 39.4929 158.082 41.6009Z" fill="#5E1B0D"/>
<path d="M155.815 40.794C155.63 41.9634 154.553 42.6177 153.53 42.4565C152.361 42.2722 151.707 41.1955 151.868 40.1723C152.03 39.1491 153.13 38.3487 154.153 38.5099C155.238 38.7557 155.976 39.7709 155.815 40.794Z" fill="url(#paint33_radial)"/>
<path d="M156.529 40.5321C156.322 41.8476 154.906 42.7482 153.383 42.4333C151.86 42.1185 150.936 40.8495 151.144 39.5339C151.352 38.2184 152.767 37.3179 154.29 37.6327C155.752 37.863 156.737 39.2166 156.529 40.5321Z" fill="#F3B1B1"/>
<path opacity="0.84" d="M152.937 140.182C155.867 139.345 159.635 143.321 161.309 148.97C162.984 154.724 161.833 159.956 158.902 160.792C155.972 161.629 152.204 157.654 150.53 152.004C148.856 146.355 149.902 141.019 152.937 140.182Z" fill="url(#paint34_radial)"/>
<path opacity="0.84" d="M148.857 161.316C145.822 160.583 144.566 155.248 146.031 149.493C147.497 143.739 151.055 139.659 154.09 140.496C157.125 141.228 158.38 146.564 156.915 152.318C155.45 158.072 151.892 162.153 148.857 161.316Z" fill="url(#paint35_radial)"/>
<path d="M153.564 138.927C153.669 138.717 153.983 138.717 154.088 138.927L158.797 149.18C160.995 153.992 158.274 158.177 153.774 158.177C149.378 158.177 146.553 153.992 148.75 149.18L153.564 138.927Z" fill="#AE0305"/>
<path opacity="0.86" d="M158.796 149.18L154.087 138.927C153.982 138.717 153.668 138.717 153.563 138.927L148.854 149.18C146.656 153.992 149.377 158.177 153.877 158.177C158.273 158.177 160.994 153.992 158.796 149.18ZM153.877 157.235C150.11 157.235 147.807 153.574 149.691 149.389L153.668 140.496C153.773 140.287 154.087 140.287 154.191 140.496L158.168 149.389C159.843 153.574 157.54 157.235 153.877 157.235Z" fill="url(#paint36_linear)"/>
<g filter="url(#filter0_d)">
<path fill-rule="evenodd" clip-rule="evenodd" d="M4 36.0074L4 31.2064C7.96531 31.2053 11.1794 28.8413 11.1794 25.9254C11.1794 23.0094 7.96531 20.6454 4 20.6443L4 13.4407C4.10938 13.4421 4.21899 13.4428 4.32884 13.4428C14.2454 13.4428 22.2844 7.53176 22.2844 0.240094C22.2844 0.159893 22.2834 0.079861 22.2815 1.17406e-05L290.875 0C290.718 0.702988 290.636 1.4247 290.636 2.16046C290.636 8.54779 296.804 13.8757 305 15.0991V20.6443H304.998C301.031 20.6443 297.816 23.0087 297.816 25.9253C297.816 28.842 301.031 31.2064 304.998 31.2064H305V36.0074H304.998C301.031 36.0074 297.816 38.3719 297.816 41.2885C297.816 44.2052 301.031 46.5696 304.998 46.5696H305V51.3706H304.998C301.031 51.3706 297.816 53.735 297.816 56.6517C297.816 59.5684 301.031 61.9328 304.998 61.9328H305V66.7338H304.998C301.031 66.7338 297.816 69.0982 297.816 72.0149C297.816 74.9315 301.031 77.2959 304.998 77.2959H305V82.097H304.998C301.031 82.097 297.816 84.4614 297.816 87.3781C297.816 90.2947 301.031 92.6592 304.998 92.6592H305V97.4601H304.998C301.031 97.4601 297.816 99.8246 297.816 102.741C297.816 105.658 301.031 108.022 304.998 108.022H305V112.823H304.998C301.031 112.823 297.816 115.188 297.816 118.104C297.816 121.021 301.031 123.385 304.998 123.385H305V128.186H304.998C301.031 128.186 297.816 130.551 297.816 133.468C297.816 136.384 301.031 138.749 304.998 138.749H305V143.55H304.998C301.031 143.55 297.816 145.914 297.816 148.831C297.816 151.747 301.031 154.112 304.998 154.112H305V158.913H304.998C301.031 158.913 297.816 161.277 297.816 164.194C297.816 167.111 301.031 169.475 304.998 169.475H305V177.639C304.89 177.637 304.781 177.637 304.671 177.637C295.083 177.637 287.25 183.163 286.741 190.119L22.2581 190.119C21.7495 183.163 13.9168 177.637 4.32884 177.637C4.21899 177.637 4.10938 177.637 4.00001 177.639V169.475C7.96531 169.474 11.1793 167.11 11.1793 164.194C11.1793 161.278 7.96531 158.914 4.00001 158.913V154.112C7.96531 154.111 11.1793 151.747 11.1793 148.831C11.1793 145.915 7.96531 143.551 4.00001 143.55L4.00001 138.749C7.96531 138.748 11.1793 136.384 11.1793 133.468C11.1793 130.552 7.96531 128.188 4.00001 128.186L4 123.385C7.96531 123.384 11.1793 121.02 11.1793 118.104C11.1793 115.188 7.96531 112.824 4 112.823L4 108.022C7.96531 108.021 11.1793 105.657 11.1793 102.741C11.1793 99.8253 7.96531 97.4613 4 97.4602L4 92.6592C7.96531 92.658 11.1793 90.2941 11.1793 87.3781C11.1793 84.4621 7.96531 82.0981 4 82.097L4 77.296C7.96531 77.2949 11.1793 74.9309 11.1793 72.0149C11.1793 69.0989 7.96531 66.735 4 66.7338L4 61.9328C7.96531 61.9317 11.1794 59.5677 11.1794 56.6517C11.1793 53.7358 7.96531 51.3718 4 51.3707L4 46.5696C7.96531 46.5685 11.1794 44.2045 11.1794 41.2885C11.1794 38.3726 7.96531 36.0086 4 36.0074ZM29 33C35.6274 33 41 27.6274 41 21C41 20.6632 40.9861 20.3297 40.9589 20H268.041C268.014 20.3297 268 20.6632 268 21C268 27.6274 273.373 33 280 33V159C273.373 159 268 164.373 268 171H41C41 164.373 35.6274 159 29 159V33Z" fill="#DEEDFF"/>
</g>
<defs>
<filter id="filter0_d" x="0" y="0" width="309" height="198.119" filterUnits="userSpaceOnUse" color-interpolation-filters="sRGB">
<feFlood flood-opacity="0" result="BackgroundImageFix"/>
<feColorMatrix in="SourceAlpha" type="matrix" values="0 0 0 0 0 0 0 0 0 0 0 0 0 0 0 0 0 0 127 0"/>
<feOffset dy="4"/>
<feGaussianBlur stdDeviation="2"/>
<feColorMatrix type="matrix" values="0 0 0 0 0 0 0 0 0 0 0 0 0 0 0 0 0 0 0.25 0"/>
<feBlend mode="normal" in2="BackgroundImageFix" result="effect1_dropShadow"/>
<feBlend mode="normal" in="SourceGraphic" in2="effect1_dropShadow" result="shape"/>
</filter>
<radialGradient id="paint0_radial" cx="0" cy="0" r="1" gradientUnits="userSpaceOnUse" gradientTransform="translate(154.5 95.5) rotate(90) scale(75.5 125.5)">
<stop stop-color="#FEFEFE"/>
<stop offset="0.355714" stop-color="#C52B2B"/>
<stop offset="1" stop-color="#6A0404"/>
</radialGradient>
<radialGradient id="paint1_radial" cx="0" cy="0" r="1" gradientUnits="userSpaceOnUse" gradientTransform="translate(302.401 106.879) rotate(133.785) scale(41.7833 119.491)">
<stop stop-color="#D6557F"/>
<stop offset="0.3204" stop-color="#C73D6C"/>
<stop offset="1" stop-color="#6F0535"/>
</radialGradient>
<radialGradient id="paint2_radial" cx="0" cy="0" r="1" gradientUnits="userSpaceOnUse" gradientTransform="translate(158.535 94.6957) rotate(105.956) scale(108.381 163.987)">
<stop stop-color="#D6557F"/>
<stop offset="0.3204" stop-color="#C73D6C"/>
<stop offset="1" stop-color="#6F0535"/>
</radialGradient>
<radialGradient id="paint3_radial" cx="0" cy="0" r="1" gradientUnits="userSpaceOnUse" gradientTransform="translate(300.342 151.353) rotate(107.409) scale(95.3407 155.82)">
<stop stop-color="#D6557F"/>
<stop offset="0.3204" stop-color="#C73D6C"/>
<stop offset="1" stop-color="#6F0535"/>
</radialGradient>
<radialGradient id="paint4_radial" cx="0" cy="0" r="1" gradientUnits="userSpaceOnUse" gradientTransform="translate(158.605 99.7242) rotate(133.861) scale(41.8365 119.657)">
<stop stop-color="#D6557F"/>
<stop offset="0.3204" stop-color="#C73D6C"/>
<stop offset="1" stop-color="#6F0535"/>
</radialGradient>
<radialGradient id="paint5_radial" cx="0" cy="0" r="1" gradientUnits="userSpaceOnUse" gradientTransform="translate(158.21 189.829) rotate(92.5036) scale(148.16 37.0141)">
<stop stop-color="#D6557F"/>
<stop offset="0.3204" stop-color="#C73D6C"/>
<stop offset="1" stop-color="#6F0535"/>
</radialGradient>
<radialGradient id="paint6_radial" cx="0" cy="0" r="1" gradientUnits="userSpaceOnUse" gradientTransform="translate(209.627 186.536) rotate(94.139) scale(143.466 59.1246)">
<stop stop-color="#D6557F"/>
<stop offset="0.3204" stop-color="#C73D6C"/>
<stop offset="1" stop-color="#6F0535"/>
</radialGradient>
<radialGradient id="paint7_radial" cx="0" cy="0" r="1" gradientUnits="userSpaceOnUse" gradientTransform="translate(275.57 186.723) rotate(99.257) scale(145.802 132.521)">
<stop stop-color="#D6557F"/>
<stop offset="0.3204" stop-color="#C73D6C"/>
<stop offset="1" stop-color="#6F0535"/>
</radialGradient>
<radialGradient id="paint8_radial" cx="0" cy="0" r="1" gradientUnits="userSpaceOnUse" gradientTransform="translate(158.158 135.363) rotate(113.743) scale(70.7254 149.221)">
<stop stop-color="#D6557F"/>
<stop offset="0.3204" stop-color="#C73D6C"/>
<stop offset="1" stop-color="#6F0535"/>
</radialGradient>
<radialGradient id="paint9_radial" cx="0" cy="0" r="1" gradientUnits="userSpaceOnUse" gradientTransform="translate(291.053 95.2092) rotate(102.113) scale(126.879 149.021)">
<stop stop-color="#D6557F"/>
<stop offset="0.3204" stop-color="#C73D6C"/>
<stop offset="1" stop-color="#6F0535"/>
</radialGradient>
<radialGradient id="paint10_radial" cx="0" cy="0" r="1" gradientUnits="userSpaceOnUse" gradientTransform="translate(158.218 94.4254) rotate(94.1839) scale(143.862 59.9261)">
<stop stop-color="#D6557F"/>
<stop offset="0.3204" stop-color="#C73D6C"/>
<stop offset="1" stop-color="#6F0535"/>
</radialGradient>
<radialGradient id="paint11_radial" cx="0" cy="0" r="1" gradientUnits="userSpaceOnUse" gradientTransform="translate(157.61 184.078) rotate(96.94) scale(139.473 95.7686)">
<stop stop-color="#D6557F"/>
<stop offset="0.3204" stop-color="#C73D6C"/>
<stop offset="1" stop-color="#6F0535"/>
</radialGradient>
<radialGradient id="paint12_radial" cx="0" cy="0" r="1" gradientUnits="userSpaceOnUse" gradientTransform="translate(158.342 175.252) rotate(102.785) scale(128.904 159.252)">
<stop stop-color="#D6557F"/>
<stop offset="0.3204" stop-color="#C73D6C"/>
<stop offset="1" stop-color="#6F0535"/>
</radialGradient>
<radialGradient id="paint13_radial" cx="0" cy="0" r="1" gradientUnits="userSpaceOnUse" gradientTransform="translate(189.363 94.319) rotate(92.4427) scale(148.54 36.2096)">
<stop stop-color="#D6557F"/>
<stop offset="0.3204" stop-color="#C73D6C"/>
<stop offset="1" stop-color="#6F0535"/>
</radialGradient>
<radialGradient id="paint14_radial" cx="0" cy="0" r="1" gradientUnits="userSpaceOnUse" gradientTransform="translate(158.763 94.7227) rotate(99.748) scale(146.011 139.484)">
<stop stop-color="#D6557F"/>
<stop offset="0.3204" stop-color="#C73D6C"/>
<stop offset="1" stop-color="#6F0535"/>
</radialGradient>
<radialGradient id="paint15_radial" cx="0" cy="0" r="1" gradientUnits="userSpaceOnUse" gradientTransform="translate(300.182 94.3705) rotate(113.404) scale(71.3019 148.798)">
<stop stop-color="#D6557F"/>
<stop offset="0.3204" stop-color="#C73D6C"/>
<stop offset="1" stop-color="#6F0535"/>
</radialGradient>
<radialGradient id="paint16_radial" cx="0" cy="0" r="1" gradientUnits="userSpaceOnUse" gradientTransform="translate(242.272 94.3761) rotate(96.8494) scale(140.771 95.4227)">
<stop stop-color="#D6557F"/>
<stop offset="0.3204" stop-color="#C73D6C"/>
<stop offset="1" stop-color="#6F0535"/>
</radialGradient>
<radialGradient id="paint17_radial" cx="0" cy="0" r="1" gradientUnits="userSpaceOnUse" gradientTransform="translate(154.075 139.008) scale(32.447 32.4372)">
<stop/>
<stop offset="0.8989" stop-color="#5B5B5B"/>
<stop offset="1" stop-color="#666666"/>
</radialGradient>
<linearGradient id="paint18_linear" x1="153.978" y1="172.132" x2="154.107" y2="163.389" gradientUnits="userSpaceOnUse">
<stop/>
<stop offset="0.2058" stop-color="#0F0F0F"/>
<stop offset="0.603" stop-color="#383838"/>
<stop offset="1" stop-color="#666666"/>
</linearGradient>
<radialGradient id="paint19_radial" cx="0" cy="0" r="1" gradientUnits="userSpaceOnUse" gradientTransform="translate(153.631 94.7242) rotate(90) scale(53.791 52.2135)">
<stop stop-color="#F8F6F6"/>
<stop offset="0.4548" stop-color="#F5F2F2"/>
<stop offset="0.4549" stop-color="#F5F2F2"/>
<stop offset="0.6452" stop-color="#EEEAEA"/>
<stop offset="0.7089" stop-color="#E7E2E2"/>
<stop offset="0.8083" stop-color="#D5CCCC"/>
<stop offset="0.875" stop-color="#C5B9B9"/>
<stop offset="0.9886" stop-color="#5E3C3C"/>
<stop offset="1" stop-color="#532F2F"/>
</radialGradient>
<linearGradient id="paint20_linear" x1="153.825" y1="36.2488" x2="153.825" y2="153.2" gradientUnits="userSpaceOnUse">
<stop stop-color="#9E1822"/>
<stop offset="0.423423" stop-color="#F4848C"/>
<stop offset="1" stop-color="#900610"/>
</linearGradient>
<linearGradient id="paint21_linear" x1="153.994" y1="166.327" x2="153.701" y2="37.2243" gradientUnits="userSpaceOnUse">
<stop stop-color="#8E2605"/>
<stop offset="1" stop-color="#EB4024"/>
</linearGradient>
<linearGradient id="paint22_linear" x1="153.927" y1="44.382" x2="153.74" y2="145.441" gradientUnits="userSpaceOnUse">
<stop offset="0.0478405" stop-color="#E7A534"/>
<stop offset="0.2284" stop-color="#E8A838"/>
<stop offset="0.3977" stop-color="#EAB043"/>
<stop offset="0.5626" stop-color="#EEBE56"/>
<stop offset="0.7238" stop-color="#F4D270"/>
<stop offset="0.8826" stop-color="#FBEB92"/>
<stop offset="0.885" stop-color="#FBEB93"/>
</linearGradient>
<radialGradient id="paint23_radial" cx="0" cy="0" r="1" gradientUnits="userSpaceOnUse" gradientTransform="translate(153.831 94.7243) rotate(90) scale(12.3233 13.2922)">
<stop stop-color="#2C0000"/>
<stop offset="0.2405" stop-color="#3F1717"/>
<stop offset="0.4482" stop-color="#532F2F"/>
<stop offset="0.5287" stop-color="#7F6464"/>
<stop offset="0.6107" stop-color="#A69393"/>
<stop offset="0.6928" stop-color="#C6BABA"/>
<stop offset="0.7736" stop-color="#DFD8D8"/>
<stop offset="0.8526" stop-color="#F1EEEE"/>
<stop offset="0.929" stop-color="#FBFBFB"/>
<stop offset="1" stop-color="white"/>
</radialGradient>
<radialGradient id="paint24_radial" cx="0" cy="0" r="1" gradientUnits="userSpaceOnUse" gradientTransform="translate(152.807 91.5102) rotate(-107.686) scale(16.9903 16.9945)">
<stop stop-color="#AF0D19"/>
<stop offset="1" stop-color="#1D0101"/>
</radialGradient>
<radialGradient id="paint25_radial" cx="0" cy="0" r="1" gradientUnits="userSpaceOnUse" gradientTransform="translate(153.821 94.7305) rotate(-0.0801899) scale(1.95983 1.95925)">
<stop offset="0.1205" stop-color="#FFFFA9"/>
<stop offset="0.3712" stop-color="#FFFEA7"/>
<stop offset="0.4615" stop-color="#FFFCA0"/>
<stop offset="0.5259" stop-color="#FFF895"/>
<stop offset="0.5779" stop-color="#FFF384"/>
<stop offset="0.622" stop-color="#FFEC6E"/>
<stop offset="0.648" stop-color="#FFE65D"/>
<stop offset="0.7153" stop-color="#FBDE5A"/>
<stop offset="0.8194" stop-color="#EFC854"/>
<stop offset="0.9467" stop-color="#DCA548"/>
<stop offset="1" stop-color="#D39443"/>
</radialGradient>
<radialGradient id="paint26_radial" cx="0" cy="0" r="1" gradientUnits="userSpaceOnUse" gradientTransform="translate(153.832 94.7249) rotate(-6.89208) scale(3.03209 2.93522)">
<stop stop-color="#FFBABA"/>
<stop offset="1" stop-color="#A40505"/>
</radialGradient>
<radialGradient id="paint27_radial" cx="0" cy="0" r="1" gradientUnits="userSpaceOnUse" gradientTransform="translate(193.936 55.5489) rotate(45.6517) scale(2.89285)">
<stop offset="0.1205" stop-color="#FFFFA9"/>
<stop offset="0.3643" stop-color="#FFFEA7"/>
<stop offset="0.4522" stop-color="#FFFCA0"/>
<stop offset="0.5148" stop-color="#FFF895"/>
<stop offset="0.5654" stop-color="#FFF384"/>
<stop offset="0.6083" stop-color="#FFEC6E"/>
<stop offset="0.6336" stop-color="#FFE65D"/>
<stop offset="0.7691" stop-color="#FEE45C"/>
<stop offset="0.8381" stop-color="#FADC5A"/>
<stop offset="0.8921" stop-color="#F2CF56"/>
<stop offset="0.9383" stop-color="#E8BC50"/>
<stop offset="0.9792" stop-color="#DBA448"/>
<stop offset="1" stop-color="#D39443"/>
</radialGradient>
<radialGradient id="paint28_radial" cx="0" cy="0" r="1" gradientUnits="userSpaceOnUse" gradientTransform="translate(115.167 54.9177) rotate(-51.8109) scale(2.89285)">
<stop offset="0.1205" stop-color="#FFFFA9"/>
<stop offset="0.3643" stop-color="#FFFEA7"/>
<stop offset="0.4522" stop-color="#FFFCA0"/>
<stop offset="0.5148" stop-color="#FFF895"/>
<stop offset="0.5654" stop-color="#FFF384"/>
<stop offset="0.6083" stop-color="#FFEC6E"/>
<stop offset="0.6336" stop-color="#FFE65D"/>
<stop offset="0.7691" stop-color="#FEE45C"/>
<stop offset="0.8381" stop-color="#FADC5A"/>
<stop offset="0.8921" stop-color="#F2CF56"/>
<stop offset="0.9383" stop-color="#E8BC50"/>
<stop offset="0.9792" stop-color="#DBA448"/>
<stop offset="1" stop-color="#D39443"/>
</radialGradient>
<radialGradient id="paint29_radial" cx="0" cy="0" r="1" gradientUnits="userSpaceOnUse" gradientTransform="translate(97.3115 90.7959) rotate(-88.9422) scale(2.89285)">
<stop offset="0.1205" stop-color="#FFFFA9"/>
<stop offset="0.3643" stop-color="#FFFEA7"/>
<stop offset="0.4522" stop-color="#FFFCA0"/>
<stop offset="0.5148" stop-color="#FFF895"/>
<stop offset="0.5654" stop-color="#FFF384"/>
<stop offset="0.6083" stop-color="#FFEC6E"/>
<stop offset="0.6336" stop-color="#FFE65D"/>
<stop offset="0.7691" stop-color="#FEE45C"/>
<stop offset="0.8381" stop-color="#FADC5A"/>
<stop offset="0.8921" stop-color="#F2CF56"/>
<stop offset="0.9383" stop-color="#E8BC50"/>
<stop offset="0.9792" stop-color="#DBA448"/>
<stop offset="1" stop-color="#D39443"/>
</radialGradient>
<radialGradient id="paint30_radial" cx="0" cy="0" r="1" gradientUnits="userSpaceOnUse" gradientTransform="translate(210.086 93.9917) rotate(75.6518) scale(2.89285)">
<stop offset="0.1205" stop-color="#FFFFA9"/>
<stop offset="0.3643" stop-color="#FFFEA7"/>
<stop offset="0.4522" stop-color="#FFFCA0"/>
<stop offset="0.5148" stop-color="#FFF895"/>
<stop offset="0.5654" stop-color="#FFF384"/>
<stop offset="0.6083" stop-color="#FFEC6E"/>
<stop offset="0.6336" stop-color="#FFE65D"/>
<stop offset="0.7691" stop-color="#FEE45C"/>
<stop offset="0.8381" stop-color="#FADC5A"/>
<stop offset="0.8921" stop-color="#F2CF56"/>
<stop offset="0.9383" stop-color="#E8BC50"/>
<stop offset="0.9792" stop-color="#DBA448"/>
<stop offset="1" stop-color="#D39443"/>
</radialGradient>
<radialGradient id="paint31_radial" cx="0" cy="0" r="1" gradientUnits="userSpaceOnUse" gradientTransform="translate(193.337 133.392) rotate(116.808) scale(2.89285)">
<stop offset="0.1205" stop-color="#FFFFA9"/>
<stop offset="0.3643" stop-color="#FFFEA7"/>
<stop offset="0.4522" stop-color="#FFFCA0"/>
<stop offset="0.5148" stop-color="#FFF895"/>
<stop offset="0.5654" stop-color="#FFF384"/>
<stop offset="0.6083" stop-color="#FFEC6E"/>
<stop offset="0.6336" stop-color="#FFE65D"/>
<stop offset="0.7691" stop-color="#FEE45C"/>
<stop offset="0.8381" stop-color="#FADC5A"/>
<stop offset="0.8921" stop-color="#F2CF56"/>
<stop offset="0.9383" stop-color="#E8BC50"/>
<stop offset="0.9792" stop-color="#DBA448"/>
<stop offset="1" stop-color="#D39443"/>
</radialGradient>
<radialGradient id="paint32_radial" cx="0" cy="0" r="1" gradientUnits="userSpaceOnUse" gradientTransform="translate(112.259 132.665) rotate(-134.348) scale(2.89285)">
<stop offset="0.1205" stop-color="#FFFFA9"/>
<stop offset="0.3643" stop-color="#FFFEA7"/>
<stop offset="0.4522" stop-color="#FFFCA0"/>
<stop offset="0.5148" stop-color="#FFF895"/>
<stop offset="0.5654" stop-color="#FFF384"/>
<stop offset="0.6083" stop-color="#FFEC6E"/>
<stop offset="0.6336" stop-color="#FFE65D"/>
<stop offset="0.7691" stop-color="#FEE45C"/>
<stop offset="0.8381" stop-color="#FADC5A"/>
<stop offset="0.8921" stop-color="#F2CF56"/>
<stop offset="0.9383" stop-color="#E8BC50"/>
<stop offset="0.9792" stop-color="#DBA448"/>
<stop offset="1" stop-color="#D39443"/>
</radialGradient>
<radialGradient id="paint33_radial" cx="0" cy="0" r="1" gradientUnits="userSpaceOnUse" gradientTransform="translate(154.018 39.2615) rotate(9.61266) scale(2.89285)">
<stop offset="0.1205" stop-color="#FFFFA9"/>
<stop offset="0.3643" stop-color="#FFFEA7"/>
<stop offset="0.4522" stop-color="#FFFCA0"/>
<stop offset="0.5148" stop-color="#FFF895"/>
<stop offset="0.5654" stop-color="#FFF384"/>
<stop offset="0.6083" stop-color="#FFEC6E"/>
<stop offset="0.6336" stop-color="#FFE65D"/>
<stop offset="0.7691" stop-color="#FEE45C"/>
<stop offset="0.8381" stop-color="#FADC5A"/>
<stop offset="0.8921" stop-color="#F2CF56"/>
<stop offset="0.9383" stop-color="#E8BC50"/>
<stop offset="0.9792" stop-color="#DBA448"/>
<stop offset="1" stop-color="#D39443"/>
</radialGradient>
<radialGradient id="paint34_radial" cx="0" cy="0" r="1" gradientUnits="userSpaceOnUse" gradientTransform="translate(155.862 150.549) rotate(-106.048) scale(10.761 5.60983)">
<stop offset="0.2971" stop-color="#2C0000"/>
<stop offset="0.3427" stop-color="#401818"/>
<stop offset="0.4838" stop-color="#795D5D"/>
<stop offset="0.6174" stop-color="#A99797"/>
<stop offset="0.7395" stop-color="#CEC4C4"/>
<stop offset="0.8478" stop-color="#E9E4E4"/>
<stop offset="0.9383" stop-color="#F9F8F8"/>
<stop offset="1" stop-color="white"/>
</radialGradient>
<radialGradient id="paint35_radial" cx="0" cy="0" r="1" gradientUnits="userSpaceOnUse" gradientTransform="translate(151.511 150.919) rotate(104.107) scale(10.7612 5.61008)">
<stop offset="0.2971" stop-color="#2C0000"/>
<stop offset="0.3427" stop-color="#401818"/>
<stop offset="0.4838" stop-color="#795D5D"/>
<stop offset="0.6174" stop-color="#A99797"/>
<stop offset="0.7395" stop-color="#CEC4C4"/>
<stop offset="0.8478" stop-color="#E9E4E4"/>
<stop offset="0.9383" stop-color="#F9F8F8"/>
<stop offset="1" stop-color="white"/>
</radialGradient>
<linearGradient id="paint36_linear" x1="153.213" y1="159.151" x2="155.322" y2="136.522" gradientUnits="userSpaceOnUse">
<stop stop-color="#E50305"/>
<stop offset="0.3401" stop-color="#D40305"/>
<stop offset="1" stop-color="#A80305"/>
</linearGradient>
</defs>
</svg>
