<svg width="404" height="469" viewBox="0 0 404 469" fill="none" xmlns="http://www.w3.org/2000/svg">
<g filter="url(#filter0_d)">
<mask id="path-1-inside-1" fill="white">
<path fill-rule="evenodd" clip-rule="evenodd" d="M346 11C352.075 11 357 6.07513 357 0H372.004C372.001 0.166311 372 0.332981 372 0.5C372 15.6878 384.312 28 399.5 28C399.667 28 399.834 27.9985 400 27.9955V439.366C398.536 439.125 397.033 439 395.5 439C382.196 439 371.098 448.448 368.55 461H357C357 454.925 352.075 450 346 450C339.925 450 335 454.925 335 461H325C325 454.925 320.075 450 314 450C307.925 450 303 454.925 303 461H293C293 454.925 288.075 450 282 450C275.925 450 271 454.925 271 461H261C261 454.925 256.075 450 250 450C243.925 450 239 454.925 239 461H229C229 454.925 224.075 450 218 450C211.925 450 207 454.925 207 461H197C197 454.925 192.075 450 186 450C179.925 450 175 454.925 175 461H165C165 454.925 160.075 450 154 450C147.925 450 143 454.925 143 461H133C133 454.925 128.075 450 122 450C115.925 450 111 454.925 111 461H101C101 454.925 96.0751 450 90 450C83.9249 450 79 454.925 79 461H69C69 454.925 64.0751 450 58 450C51.9249 450 47 454.925 47 461H29.9955C29.9985 460.834 30 460.667 30 460.5C30 445.815 18.4903 433.819 4 433.04V27.9598C18.4903 27.1809 30 15.1846 30 0.5C30 0.332981 29.9985 0.166311 29.9955 0H47C47 6.07513 51.9249 11 58 11C64.0751 11 69 6.07513 69 0H79C79 6.07513 83.9249 11 90 11C96.0751 11 101 6.07513 101 0H111C111 6.07513 115.925 11 122 11C128.075 11 133 6.07513 133 0H143C143 6.07513 147.925 11 154 11C160.075 11 165 6.07513 165 0H175C175 6.07513 179.925 11 186 11C192.075 11 197 6.07513 197 0H207C207 6.07513 211.925 11 218 11C224.075 11 229 6.07513 229 0H239C239 6.07513 243.925 11 250 11C256.075 11 261 6.07513 261 0H271C271 6.07513 275.925 11 282 11C288.075 11 293 6.07513 293 0H303C303 6.07513 307.925 11 314 11C320.075 11 325 6.07513 325 0H335C335 6.07513 339.925 11 346 11Z"/>
</mask>
<path fill-rule="evenodd" clip-rule="evenodd" d="M346 11C352.075 11 357 6.07513 357 0H372.004C372.001 0.166311 372 0.332981 372 0.5C372 15.6878 384.312 28 399.5 28C399.667 28 399.834 27.9985 400 27.9955V439.366C398.536 439.125 397.033 439 395.5 439C382.196 439 371.098 448.448 368.55 461H357C357 454.925 352.075 450 346 450C339.925 450 335 454.925 335 461H325C325 454.925 320.075 450 314 450C307.925 450 303 454.925 303 461H293C293 454.925 288.075 450 282 450C275.925 450 271 454.925 271 461H261C261 454.925 256.075 450 250 450C243.925 450 239 454.925 239 461H229C229 454.925 224.075 450 218 450C211.925 450 207 454.925 207 461H197C197 454.925 192.075 450 186 450C179.925 450 175 454.925 175 461H165C165 454.925 160.075 450 154 450C147.925 450 143 454.925 143 461H133C133 454.925 128.075 450 122 450C115.925 450 111 454.925 111 461H101C101 454.925 96.0751 450 90 450C83.9249 450 79 454.925 79 461H69C69 454.925 64.0751 450 58 450C51.9249 450 47 454.925 47 461H29.9955C29.9985 460.834 30 460.667 30 460.5C30 445.815 18.4903 433.819 4 433.04V27.9598C18.4903 27.1809 30 15.1846 30 0.5C30 0.332981 29.9985 0.166311 29.9955 0H47C47 6.07513 51.9249 11 58 11C64.0751 11 69 6.07513 69 0H79C79 6.07513 83.9249 11 90 11C96.0751 11 101 6.07513 101 0H111C111 6.07513 115.925 11 122 11C128.075 11 133 6.07513 133 0H143C143 6.07513 147.925 11 154 11C160.075 11 165 6.07513 165 0H175C175 6.07513 179.925 11 186 11C192.075 11 197 6.07513 197 0H207C207 6.07513 211.925 11 218 11C224.075 11 229 6.07513 229 0H239C239 6.07513 243.925 11 250 11C256.075 11 261 6.07513 261 0H271C271 6.07513 275.925 11 282 11C288.075 11 293 6.07513 293 0H303C303 6.07513 307.925 11 314 11C320.075 11 325 6.07513 325 0H335C335 6.07513 339.925 11 346 11Z" fill="url(#paint0_radial)"/>
<path d="M357 0V-2H355V0H357ZM372.004 0L374.004 0.0355929L374.04 -2H372.004V0ZM400 27.9955H402V25.9596L399.964 25.9959L400 27.9955ZM400 439.366L399.675 441.34L402 441.723V439.366H400ZM368.55 461V463H370.185L370.51 461.398L368.55 461ZM357 461H355V463H357V461ZM335 461V463H337V461H335ZM325 461H323V463H325V461ZM303 461V463H305V461H303ZM293 461H291V463H293V461ZM271 461V463H273V461H271ZM261 461H259V463H261V461ZM239 461V463H241V461H239ZM229 461H227V463H229V461ZM207 461V463H209V461H207ZM197 461H195V463H197V461ZM175 461V463H177V461H175ZM165 461H163V463H165V461ZM143 461V463H145V461H143ZM133 461H131V463H133V461ZM111 461V463H113V461H111ZM101 461H99V463H101V461ZM79 461V463H81V461H79ZM69 461H67V463H69V461ZM47 461V463H49V461H47ZM29.9955 461L27.9959 460.964L27.9596 463H29.9955V461ZM4 433.04H2V434.936L3.89265 435.037L4 433.04ZM4 27.9598L3.89265 25.9627L2 26.0644V27.9598H4ZM29.9955 0V-2H27.9596L27.9959 0.0356617L29.9955 0ZM47 0H49V-2H47V0ZM69 0V-2H67V0H69ZM79 0H81V-2H79V0ZM101 0V-2H99V0H101ZM111 0H113V-2H111V0ZM133 0V-2H131V0H133ZM143 0H145V-2H143V0ZM165 0V-2H163V0H165ZM175 0H177V-2H175V0ZM197 0V-2H195V0H197ZM207 0H209V-2H207V0ZM229 0V-2H227V0H229ZM239 0H241V-2H239V0ZM261 0V-2H259V0H261ZM271 0H273V-2H271V0ZM293 0V-2H291V0H293ZM303 0H305V-2H303V0ZM325 0V-2H323V0H325ZM335 0H337V-2H335V0ZM355 0C355 4.97056 350.971 9 346 9V13C353.18 13 359 7.1797 359 0H355ZM372.004 -2H357V2H372.004V-2ZM374 0.5C374 0.344919 374.001 0.190113 374.004 0.0355929L370.005 -0.0355929C370.002 0.142508 370 0.321043 370 0.5H374ZM399.5 26C385.417 26 374 14.5833 374 0.5H370C370 16.7924 383.208 30 399.5 30V26ZM399.964 25.9959C399.81 25.9986 399.655 26 399.5 26V30C399.679 30 399.857 29.9984 400.036 29.9952L399.964 25.9959ZM402 439.366V27.9955H398V439.366H402ZM395.5 441C396.923 441 398.318 441.116 399.675 441.34L400.325 437.393C398.754 437.134 397.142 437 395.5 437V441ZM370.51 461.398C372.873 449.759 383.166 441 395.5 441V437C381.226 437 369.324 447.136 366.59 460.602L370.51 461.398ZM357 463H368.55V459H357V463ZM346 452C350.971 452 355 456.029 355 461H359C359 453.82 353.18 448 346 448V452ZM337 461C337 456.029 341.029 452 346 452V448C338.82 448 333 453.82 333 461H337ZM325 463H335V459H325V463ZM314 452C318.971 452 323 456.029 323 461H327C327 453.82 321.18 448 314 448V452ZM305 461C305 456.029 309.029 452 314 452V448C306.82 448 301 453.82 301 461H305ZM293 463H303V459H293V463ZM282 452C286.971 452 291 456.029 291 461H295C295 453.82 289.18 448 282 448V452ZM273 461C273 456.029 277.029 452 282 452V448C274.82 448 269 453.82 269 461H273ZM261 463H271V459H261V463ZM250 452C254.971 452 259 456.029 259 461H263C263 453.82 257.18 448 250 448V452ZM241 461C241 456.029 245.029 452 250 452V448C242.82 448 237 453.82 237 461H241ZM229 463H239V459H229V463ZM218 452C222.971 452 227 456.029 227 461H231C231 453.82 225.18 448 218 448V452ZM209 461C209 456.029 213.029 452 218 452V448C210.82 448 205 453.82 205 461H209ZM197 463H207V459H197V463ZM186 452C190.971 452 195 456.029 195 461H199C199 453.82 193.18 448 186 448V452ZM177 461C177 456.029 181.029 452 186 452V448C178.82 448 173 453.82 173 461H177ZM165 463H175V459H165V463ZM154 452C158.971 452 163 456.029 163 461H167C167 453.82 161.18 448 154 448V452ZM145 461C145 456.029 149.029 452 154 452V448C146.82 448 141 453.82 141 461H145ZM133 463H143V459H133V463ZM122 452C126.971 452 131 456.029 131 461H135C135 453.82 129.18 448 122 448V452ZM113 461C113 456.029 117.029 452 122 452V448C114.82 448 109 453.82 109 461H113ZM101 463H111V459H101V463ZM90 452C94.9706 452 99 456.029 99 461H103C103 453.82 97.1797 448 90 448V452ZM81 461C81 456.029 85.0294 452 90 452V448C82.8203 448 77 453.82 77 461H81ZM69 463H79V459H69V463ZM58 452C62.9706 452 67 456.029 67 461H71C71 453.82 65.1797 448 58 448V452ZM49 461C49 456.029 53.0294 452 58 452V448C50.8203 448 45 453.82 45 461H49ZM29.9955 463H47V459H29.9955V463ZM28 460.5C28 460.655 27.9986 460.81 27.9959 460.964L31.9952 461.036C31.9984 460.857 32 460.679 32 460.5H28ZM3.89265 435.037C17.3274 435.759 28 446.884 28 460.5H32C32 444.747 19.6532 431.879 4.10735 431.043L3.89265 435.037ZM2 27.9598V433.04H6V27.9598H2ZM28 0.5C28 14.1159 17.3274 25.2405 3.89265 25.9627L4.10735 29.9569C19.6532 29.1213 32 16.2532 32 0.5H28ZM27.9959 0.0356617C27.9986 0.190075 28 0.344858 28 0.5H32C32 0.321104 31.9984 0.142546 31.9952 -0.0356617L27.9959 0.0356617ZM47 -2H29.9955V2H47V-2ZM58 9C53.0294 9 49 4.97056 49 0H45C45 7.1797 50.8203 13 58 13V9ZM67 0C67 4.97056 62.9706 9 58 9V13C65.1797 13 71 7.1797 71 0H67ZM79 -2H69V2H79V-2ZM90 9C85.0294 9 81 4.97056 81 0H77C77 7.1797 82.8203 13 90 13V9ZM99 0C99 4.97056 94.9706 9 90 9V13C97.1797 13 103 7.1797 103 0H99ZM111 -2H101V2H111V-2ZM122 9C117.029 9 113 4.97056 113 0H109C109 7.1797 114.82 13 122 13V9ZM131 0C131 4.97056 126.971 9 122 9V13C129.18 13 135 7.1797 135 0H131ZM143 -2H133V2H143V-2ZM154 9C149.029 9 145 4.97056 145 0H141C141 7.1797 146.82 13 154 13V9ZM163 0C163 4.97056 158.971 9 154 9V13C161.18 13 167 7.1797 167 0H163ZM175 -2H165V2H175V-2ZM186 9C181.029 9 177 4.97056 177 0H173C173 7.1797 178.82 13 186 13V9ZM195 0C195 4.97056 190.971 9 186 9V13C193.18 13 199 7.1797 199 0H195ZM207 -2H197V2H207V-2ZM218 9C213.029 9 209 4.97056 209 0H205C205 7.1797 210.82 13 218 13V9ZM227 0C227 4.97056 222.971 9 218 9V13C225.18 13 231 7.1797 231 0H227ZM239 -2H229V2H239V-2ZM250 9C245.029 9 241 4.97056 241 0H237C237 7.1797 242.82 13 250 13V9ZM259 0C259 4.97056 254.971 9 250 9V13C257.18 13 263 7.1797 263 0H259ZM271 -2H261V2H271V-2ZM282 9C277.029 9 273 4.97056 273 0H269C269 7.1797 274.82 13 282 13V9ZM291 0C291 4.97056 286.971 9 282 9V13C289.18 13 295 7.1797 295 0H291ZM303 -2H293V2H303V-2ZM314 9C309.029 9 305 4.97056 305 0H301C301 7.1797 306.82 13 314 13V9ZM323 0C323 4.97056 318.971 9 314 9V13C321.18 13 327 7.1797 327 0H323ZM335 -2H325V2H335V-2ZM346 9C341.029 9 337 4.97056 337 0H333C333 7.1797 338.82 13 346 13V9Z" fill="#FEF384" mask="url(#path-1-inside-1)"/>
</g>
<defs>
<filter id="filter0_d" x="0" y="0" width="404" height="469" filterUnits="userSpaceOnUse" color-interpolation-filters="sRGB">
<feFlood flood-opacity="0" result="BackgroundImageFix"/>
<feColorMatrix in="SourceAlpha" type="matrix" values="0 0 0 0 0 0 0 0 0 0 0 0 0 0 0 0 0 0 127 0"/>
<feOffset dy="4"/>
<feGaussianBlur stdDeviation="2"/>
<feColorMatrix type="matrix" values="0 0 0 0 0.692561 0 0 0 0 0.642697 0 0 0 0 0 0 0 0 1 0"/>
<feBlend mode="normal" in2="BackgroundImageFix" result="effect1_dropShadow"/>
<feBlend mode="normal" in="SourceGraphic" in2="effect1_dropShadow" result="shape"/>
</filter>
<radialGradient id="paint0_radial" cx="0" cy="0" r="1" gradientUnits="userSpaceOnUse" gradientTransform="translate(340 197) rotate(117.597) scale(297.893 255.89)">
<stop stop-color="#F6D98D"/>
<stop offset="0.121399" stop-color="#CBAA56"/>
<stop offset="1" stop-color="#BD9B44"/>
</radialGradient>
</defs>
</svg>
