<svg width="1200" height="373" viewBox="0 0 1200 373" fill="none" xmlns="http://www.w3.org/2000/svg">
<rect x="46" y="38.9996" width="1109" height="289" fill="url(#paint0_radial)"/>
<path fill-rule="evenodd" clip-rule="evenodd" d="M300.772 38.9996C299.508 39.6509 298.25 40.3059 297 40.9645L298.094 40.6329L579 183L393.589 38.9996H300.772Z" fill="url(#paint1_radial)"/>
<path fill-rule="evenodd" clip-rule="evenodd" d="M460.381 38.9996L584.418 182L528.308 38.9996H460.381Z" fill="url(#paint2_radial)"/>
<path fill-rule="evenodd" clip-rule="evenodd" d="M812.766 38.9996L597 186L905.186 39.4758L906 39.9828C905.675 39.6544 905.349 39.3267 905.021 38.9996H812.766Z" fill="url(#paint3_radial)"/>
<path fill-rule="evenodd" clip-rule="evenodd" d="M692.526 38.9996L595 182L745.193 39.8989L746 40.1579C745.038 39.7676 744.071 39.3815 743.099 38.9996H692.526Z" fill="url(#paint4_radial)"/>
<path fill-rule="evenodd" clip-rule="evenodd" d="M594.316 38.9996L589.418 179L646.125 38.9996H594.316Z" fill="url(#paint5_radial)"/>
<path fill-rule="evenodd" clip-rule="evenodd" d="M1155 38.9996H1058.02L600 187L1155 63.4903V38.9996Z" fill="url(#paint6_radial)"/>
<path fill-rule="evenodd" clip-rule="evenodd" d="M1155 173.466L597.418 189.307L1155 225.874V173.466Z" fill="url(#paint7_radial)"/>
<path fill-rule="evenodd" clip-rule="evenodd" d="M597.418 192L1155 323.34V328H934.565L597.418 192Z" fill="url(#paint8_radial)"/>
<path fill-rule="evenodd" clip-rule="evenodd" d="M290.118 328L576.982 197.097L376.858 328H290.118Z" fill="url(#paint9_radial)"/>
<path fill-rule="evenodd" clip-rule="evenodd" d="M446.079 328L580.013 199.395L493.536 328H446.079Z" fill="url(#paint10_radial)"/>
<path fill-rule="evenodd" clip-rule="evenodd" d="M580.247 328L586.418 199L529.304 328H580.247Z" fill="url(#paint11_radial)"/>
<path fill-rule="evenodd" clip-rule="evenodd" d="M681.296 328L591.418 198L631.478 328H681.296Z" fill="url(#paint12_radial)"/>
<path fill-rule="evenodd" clip-rule="evenodd" d="M826.081 328L597.418 197L745.509 328H826.081Z" fill="url(#paint13_radial)"/>
<path fill-rule="evenodd" clip-rule="evenodd" d="M46 72.8821L577 185L172.438 38.9996H46V72.8821Z" fill="url(#paint14_radial)"/>
<path fill-rule="evenodd" clip-rule="evenodd" d="M46 204.906L577.13 189.769L46 153.535V204.906Z" fill="url(#paint15_radial)"/>
<path fill-rule="evenodd" clip-rule="evenodd" d="M46 328H123.275L576.418 193L46 280.497V328Z" fill="url(#paint16_radial)"/>
<circle opacity="0.5" cx="367.5" cy="153.5" r="56.5" fill="url(#paint17_radial)"/>
<circle opacity="0.5" cx="56.5" cy="56.5" r="56.5" fill="url(#paint18_radial)"/>
<circle opacity="0.5" cx="1143.5" cy="316.5" r="56.5" fill="url(#paint19_radial)"/>
<circle opacity="0.5" cx="865.5" cy="140.5" r="56.5" fill="url(#paint20_radial)"/>
<circle opacity="0.3" cx="586" cy="189" r="122" fill="url(#paint21_radial)"/>
<circle opacity="0.5" cx="1050.5" cy="132.5" r="56.5" fill="url(#paint22_radial)"/>
<g filter="url(#filter0_d)">
<path d="M337.5 322V328H155V322L127.5 327L147 304.5L116.5 301L138.5 282L105 275.5L130.5 256.5L93 243L120.5 229.5L96 210L127.5 205L105 180.5H138.5L120.5 152L152.5 160L143.5 128.5L173.5 142L168 109L195 128.5L199 96.9997L220.5 121.5L229 91.9997L246 119L264 91.9997L272 121.5L291.5 96.9997L295.5 128.5L322.5 109L317 142L348.5 128.5L337.5 160L370 152L353.5 180.5H386.5L362.5 205L394.5 210L370 229.5L400.5 243L370 256.5L394.5 278.5L362.5 287L381.5 304.5L353.5 309L366 327L337.5 322Z" fill="#EAD682"/>
<path d="M337.5 322V328H155V322L127.5 327L147 304.5L116.5 301L138.5 282L105 275.5L130.5 256.5L93 243L120.5 229.5L96 210L127.5 205L105 180.5H138.5L120.5 152L152.5 160L143.5 128.5L173.5 142L168 109L195 128.5L199 96.9997L220.5 121.5L229 91.9997L246 119L264 91.9997L272 121.5L291.5 96.9997L295.5 128.5L322.5 109L317 142L348.5 128.5L337.5 160L370 152L353.5 180.5H386.5L362.5 205L394.5 210L370 229.5L400.5 243L370 256.5L394.5 278.5L362.5 287L381.5 304.5L353.5 309L366 327L337.5 322Z" stroke="#FFEC9C" stroke-width="2"/>
</g>
<g filter="url(#filter1_d)">
<path d="M336.396 169.983V247.5L228.426 235.319V185.486L336.396 169.983Z" fill="#F39602"/>
<path d="M336.396 169.983V247.5L228.426 235.319V185.486L336.396 169.983Z" stroke="#FFEC9C"/>
</g>
<g filter="url(#filter2_d)">
<path d="M261.8 224.798V235.872L254.049 224.798L252.941 225.906L246.851 227.013C237.549 215.496 242.975 203.02 246.851 198.221L249.619 187.701L254.049 198.221L260.139 187.701L261.8 198.221L274.535 194.345L265.676 208.741L277.858 212.617L265.676 219.262L272.874 228.674L261.8 224.798Z" fill="#FDFDFE"/>
<path d="M261.8 224.798V235.872L254.049 224.798L252.941 225.906L246.851 227.013C237.549 215.496 242.975 203.02 246.851 198.221L249.619 187.701L254.049 198.221L260.139 187.701L261.8 198.221L274.535 194.345L265.676 208.741L277.858 212.617L265.676 219.262L272.874 228.674L261.8 224.798Z" stroke="#FFEC9C"/>
</g>
<g filter="url(#filter3_d)">
<path d="M157 237.533V177.181H173.611V226.459H186.346V237.533H157Z" fill="#202385"/>
<path d="M157 237.533V177.181H173.611V226.459H186.346V237.533H157Z" stroke="#FFEC9C"/>
</g>
<g filter="url(#filter4_d)">
<mask id="path-28-inside-1" fill="white">
<path fill-rule="evenodd" clip-rule="evenodd" d="M200.742 235.319C211.139 235.319 219.567 223.42 219.567 208.741C219.567 194.063 211.139 182.164 200.742 182.164C190.345 182.164 181.916 194.063 181.916 208.741C181.916 223.42 190.345 235.319 200.742 235.319ZM202.403 225.352C206.99 225.352 210.708 217.915 210.708 208.741C210.708 199.567 206.99 192.131 202.403 192.131C197.816 192.131 194.097 199.567 194.097 208.741C194.097 217.915 197.816 225.352 202.403 225.352Z"/>
</mask>
<path fill-rule="evenodd" clip-rule="evenodd" d="M200.742 235.319C211.139 235.319 219.567 223.42 219.567 208.741C219.567 194.063 211.139 182.164 200.742 182.164C190.345 182.164 181.916 194.063 181.916 208.741C181.916 223.42 190.345 235.319 200.742 235.319ZM202.403 225.352C206.99 225.352 210.708 217.915 210.708 208.741C210.708 199.567 206.99 192.131 202.403 192.131C197.816 192.131 194.097 199.567 194.097 208.741C194.097 217.915 197.816 225.352 202.403 225.352Z" fill="#202385"/>
<path d="M218.567 208.741C218.567 215.898 216.511 222.335 213.237 226.956C209.962 231.58 205.53 234.319 200.742 234.319V236.319C206.351 236.319 211.331 233.107 214.869 228.112C218.409 223.115 220.567 216.263 220.567 208.741H218.567ZM200.742 183.164C205.53 183.164 209.962 185.902 213.237 190.526C216.511 195.148 218.567 201.585 218.567 208.741H220.567C220.567 201.22 218.409 194.368 214.869 189.37C211.331 184.375 206.351 181.164 200.742 181.164V183.164ZM182.916 208.741C182.916 201.585 184.972 195.148 188.246 190.526C191.521 185.902 195.954 183.164 200.742 183.164V181.164C195.133 181.164 190.152 184.375 186.614 189.37C183.074 194.368 180.916 201.22 180.916 208.741H182.916ZM200.742 234.319C195.954 234.319 191.521 231.58 188.246 226.956C184.972 222.335 182.916 215.898 182.916 208.741H180.916C180.916 216.263 183.074 223.115 186.614 228.112C190.152 233.107 195.133 236.319 200.742 236.319V234.319ZM209.708 208.741C209.708 213.207 208.801 217.2 207.381 220.04C205.931 222.939 204.113 224.352 202.403 224.352V226.352C205.279 226.352 207.614 224.046 209.17 220.934C210.756 217.762 211.708 213.45 211.708 208.741H209.708ZM202.403 193.131C204.113 193.131 205.931 194.543 207.381 197.443C208.801 200.283 209.708 204.276 209.708 208.741H211.708C211.708 204.033 210.756 199.721 209.17 196.549C207.614 193.436 205.279 191.131 202.403 191.131V193.131ZM195.097 208.741C195.097 204.276 196.004 200.283 197.424 197.443C198.874 194.543 200.692 193.131 202.403 193.131V191.131C199.526 191.131 197.192 193.436 195.635 196.549C194.049 199.721 193.097 204.033 193.097 208.741H195.097ZM202.403 224.352C200.692 224.352 198.874 222.939 197.424 220.04C196.004 217.2 195.097 213.207 195.097 208.741H193.097C193.097 213.45 194.049 217.762 195.635 220.934C197.192 224.046 199.526 226.352 202.403 226.352V224.352Z" fill="#FFEC9C" mask="url(#path-28-inside-1)"/>
</g>
<g filter="url(#filter5_d)">
<mask id="path-30-inside-2" fill="white">
<path fill-rule="evenodd" clip-rule="evenodd" d="M248.359 229.782C254.475 229.782 259.433 221.105 259.433 210.402C259.433 199.7 254.475 191.023 248.359 191.023C242.243 191.023 237.285 199.7 237.285 210.402C237.285 221.105 242.243 229.782 248.359 229.782ZM248.913 222.245C251.665 222.245 253.896 216.943 253.896 210.402C253.896 203.862 251.665 198.56 248.913 198.56C246.161 198.56 243.93 203.862 243.93 210.402C243.93 216.943 246.161 222.245 248.913 222.245Z"/>
</mask>
<path fill-rule="evenodd" clip-rule="evenodd" d="M248.359 229.782C254.475 229.782 259.433 221.105 259.433 210.402C259.433 199.7 254.475 191.023 248.359 191.023C242.243 191.023 237.285 199.7 237.285 210.402C237.285 221.105 242.243 229.782 248.359 229.782ZM248.913 222.245C251.665 222.245 253.896 216.943 253.896 210.402C253.896 203.862 251.665 198.56 248.913 198.56C246.161 198.56 243.93 203.862 243.93 210.402C243.93 216.943 246.161 222.245 248.913 222.245Z" fill="#202385"/>
<path d="M258.433 210.402C258.433 215.612 257.224 220.279 255.321 223.609C253.402 226.968 250.903 228.782 248.359 228.782V230.782C251.931 230.782 254.969 228.257 257.058 224.602C259.163 220.918 260.433 215.896 260.433 210.402H258.433ZM248.359 192.023C250.903 192.023 253.402 193.837 255.321 197.195C257.224 200.526 258.433 205.193 258.433 210.402H260.433C260.433 204.909 259.163 199.887 257.058 196.203C254.969 192.548 251.931 190.023 248.359 190.023V192.023ZM238.285 210.402C238.285 205.193 239.494 200.526 241.397 197.195C243.316 193.837 245.815 192.023 248.359 192.023V190.023C244.787 190.023 241.749 192.548 239.661 196.203C237.556 199.887 236.285 204.909 236.285 210.402H238.285ZM248.359 228.782C245.815 228.782 243.316 226.968 241.397 223.609C239.494 220.279 238.285 215.612 238.285 210.402H236.285C236.285 215.896 237.556 220.918 239.661 224.602C241.749 228.257 244.787 230.782 248.359 230.782V228.782ZM252.896 210.402C252.896 213.573 252.353 216.396 251.515 218.389C251.095 219.387 250.62 220.131 250.144 220.609C249.671 221.084 249.256 221.245 248.913 221.245V223.245C249.946 223.245 250.841 222.744 251.561 222.02C252.278 221.3 252.877 220.309 253.358 219.164C254.323 216.871 254.896 213.773 254.896 210.402H252.896ZM248.913 199.56C249.256 199.56 249.671 199.721 250.144 200.196C250.62 200.674 251.095 201.417 251.515 202.416C252.353 204.409 252.896 207.232 252.896 210.402H254.896C254.896 207.032 254.323 203.934 253.358 201.64C252.877 200.496 252.278 199.505 251.561 198.785C250.841 198.061 249.946 197.56 248.913 197.56V199.56ZM244.93 210.402C244.93 207.232 245.472 204.409 246.311 202.416C246.731 201.417 247.206 200.674 247.682 200.196C248.154 199.721 248.569 199.56 248.913 199.56V197.56C247.88 197.56 246.984 198.061 246.264 198.785C245.548 199.505 244.949 200.496 244.467 201.64C243.502 203.934 242.93 207.032 242.93 210.402H244.93ZM248.913 221.245C248.569 221.245 248.154 221.084 247.682 220.609C247.206 220.131 246.731 219.387 246.311 218.389C245.472 216.396 244.93 213.573 244.93 210.402H242.93C242.93 213.773 243.502 216.871 244.467 219.164C244.949 220.309 245.548 221.3 246.264 222.02C246.984 222.744 247.88 223.245 248.913 223.245V221.245Z" fill="#FFEC9C" mask="url(#path-30-inside-2)"/>
</g>
<g filter="url(#filter6_d)">
<path d="M218.46 196.006V189.362H237.839V196.006H232.856V230.335H225.104V196.006H218.46Z" fill="#202385"/>
<path d="M218.46 196.006V189.362H237.839V196.006H232.856V230.335H225.104V196.006H218.46Z" stroke="#FFEC9C"/>
</g>
<g filter="url(#filter7_d)">
<path d="M305 187.087C296.861 182.391 288.42 187.739 285.217 191L278 188.5L279 181.869L305 176V187.087Z" fill="#430200" stroke="#FFEC9C"/>
<path d="M278 188.5V169.5L320.5 159L321 182C307.8 193.2 303 233.333 302.5 251H288.5C288.5 211.4 299.167 187.833 304.5 182C293.7 178.8 282.333 185 278 188.5Z" fill="#E50012" stroke="#FFEC9C"/>
<path d="M328.5 167L320.5 159V180C304.5 192.4 301.833 232.5 302.5 251L315 240.5C310.6 217.3 322.167 193.166 328.5 184V167Z" fill="#810201" stroke="#FFEC9C"/>
</g>
<circle opacity="0.5" cx="275" cy="169" r="15" fill="url(#paint23_radial)"/>
<g filter="url(#filter8_d)">
<path d="M1053.5 322V328H871V322L843.5 327L863 304.5L832.5 301L854.5 282L821 275.5L846.5 256.5L809 243L836.5 229.5L812 210L843.5 205L821 180.5H854.5L836.5 152L868.5 160L859.5 128.5L889.5 142L884 109L911 128.5L915 97L936.5 121.5L945 92L962 119L980 92L988 121.5L1007.5 97L1011.5 128.5L1038.5 109L1033 142L1064.5 128.5L1053.5 160L1086 152L1069.5 180.5H1102.5L1078.5 205L1110.5 210L1086 229.5L1116.5 243L1086 256.5L1110.5 278.5L1078.5 287L1097.5 304.5L1069.5 309L1082 327L1053.5 322Z" fill="#EAD682"/>
<path d="M1053.5 322V328H871V322L843.5 327L863 304.5L832.5 301L854.5 282L821 275.5L846.5 256.5L809 243L836.5 229.5L812 210L843.5 205L821 180.5H854.5L836.5 152L868.5 160L859.5 128.5L889.5 142L884 109L911 128.5L915 97L936.5 121.5L945 92L962 119L980 92L988 121.5L1007.5 97L1011.5 128.5L1038.5 109L1033 142L1064.5 128.5L1053.5 160L1086 152L1069.5 180.5H1102.5L1078.5 205L1110.5 210L1086 229.5L1116.5 243L1086 256.5L1110.5 278.5L1078.5 287L1097.5 304.5L1069.5 309L1082 327L1053.5 322Z" stroke="#FFEC9C" stroke-width="2"/>
</g>
<g filter="url(#filter9_d)">
<path d="M1052.4 169.983V247.5L944.426 235.319V185.487L1052.4 169.983Z" fill="#F39602"/>
<path d="M1052.4 169.983V247.5L944.426 235.319V185.487L1052.4 169.983Z" stroke="#FFEC9C"/>
</g>
<g filter="url(#filter10_d)">
<path d="M977.8 224.799V235.873L970.049 224.799L968.941 225.906L962.851 227.013C953.549 215.497 958.975 203.02 962.851 198.222L965.619 187.701L970.049 198.222L976.139 187.701L977.8 198.222L990.535 194.346L981.676 208.742L993.858 212.618L981.676 219.262L988.874 228.675L977.8 224.799Z" fill="#FDFDFE"/>
<path d="M977.8 224.799V235.873L970.049 224.799L968.941 225.906L962.851 227.013C953.549 215.497 958.975 203.02 962.851 198.222L965.619 187.701L970.049 198.222L976.139 187.701L977.8 198.222L990.535 194.346L981.676 208.742L993.858 212.618L981.676 219.262L988.874 228.675L977.8 224.799Z" stroke="#FFEC9C"/>
</g>
<g filter="url(#filter11_d)">
<path d="M873 237.534V177.181H889.611V226.46H902.346V237.534H873Z" fill="#202385"/>
<path d="M873 237.534V177.181H889.611V226.46H902.346V237.534H873Z" stroke="#FFEC9C"/>
</g>
<g filter="url(#filter12_d)">
<mask id="path-41-inside-3" fill="white">
<path fill-rule="evenodd" clip-rule="evenodd" d="M916.742 235.319C927.139 235.319 935.567 223.42 935.567 208.742C935.567 194.063 927.139 182.164 916.742 182.164C906.345 182.164 897.916 194.063 897.916 208.742C897.916 223.42 906.345 235.319 916.742 235.319ZM918.403 225.352C922.99 225.352 926.708 217.915 926.708 208.742C926.708 199.568 922.99 192.131 918.403 192.131C913.816 192.131 910.097 199.568 910.097 208.742C910.097 217.915 913.816 225.352 918.403 225.352Z"/>
</mask>
<path fill-rule="evenodd" clip-rule="evenodd" d="M916.742 235.319C927.139 235.319 935.567 223.42 935.567 208.742C935.567 194.063 927.139 182.164 916.742 182.164C906.345 182.164 897.916 194.063 897.916 208.742C897.916 223.42 906.345 235.319 916.742 235.319ZM918.403 225.352C922.99 225.352 926.708 217.915 926.708 208.742C926.708 199.568 922.99 192.131 918.403 192.131C913.816 192.131 910.097 199.568 910.097 208.742C910.097 217.915 913.816 225.352 918.403 225.352Z" fill="#202385"/>
<path d="M934.567 208.742C934.567 215.898 932.511 222.335 929.237 226.956C925.962 231.58 921.53 234.319 916.742 234.319V236.319C922.351 236.319 927.331 233.108 930.869 228.113C934.409 223.115 936.567 216.263 936.567 208.742H934.567ZM916.742 183.164C921.53 183.164 925.962 185.903 929.237 190.527C932.511 195.148 934.567 201.585 934.567 208.742H936.567C936.567 201.22 934.409 194.368 930.869 189.371C927.331 184.376 922.351 181.164 916.742 181.164V183.164ZM898.916 208.742C898.916 201.585 900.972 195.148 904.246 190.527C907.521 185.903 911.954 183.164 916.742 183.164V181.164C911.133 181.164 906.152 184.376 902.614 189.371C899.074 194.368 896.916 201.22 896.916 208.742H898.916ZM916.742 234.319C911.954 234.319 907.521 231.58 904.246 226.956C900.972 222.335 898.916 215.898 898.916 208.742H896.916C896.916 216.263 899.074 223.115 902.614 228.113C906.152 233.108 911.133 236.319 916.742 236.319V234.319ZM925.708 208.742C925.708 213.207 924.801 217.2 923.381 220.04C921.931 222.94 920.113 224.352 918.403 224.352V226.352C921.279 226.352 923.614 224.047 925.17 220.934C926.756 217.762 927.708 213.45 927.708 208.742H925.708ZM918.403 193.131C920.113 193.131 921.931 194.544 923.381 197.443C924.801 200.283 925.708 204.276 925.708 208.742H927.708C927.708 204.033 926.756 199.721 925.17 196.549C923.614 193.437 921.279 191.131 918.403 191.131V193.131ZM911.097 208.742C911.097 204.276 912.004 200.283 913.424 197.443C914.874 194.544 916.692 193.131 918.403 193.131V191.131C915.526 191.131 913.192 193.437 911.635 196.549C910.049 199.721 909.097 204.033 909.097 208.742H911.097ZM918.403 224.352C916.692 224.352 914.874 222.94 913.424 220.04C912.004 217.2 911.097 213.207 911.097 208.742H909.097C909.097 213.45 910.049 217.762 911.635 220.934C913.192 224.047 915.526 226.352 918.403 226.352V224.352Z" fill="#FFEC9C" mask="url(#path-41-inside-3)"/>
</g>
<g filter="url(#filter13_d)">
<mask id="path-43-inside-4" fill="white">
<path fill-rule="evenodd" clip-rule="evenodd" d="M964.359 229.782C970.475 229.782 975.433 221.106 975.433 210.403C975.433 199.7 970.475 191.024 964.359 191.024C958.243 191.024 953.285 199.7 953.285 210.403C953.285 221.106 958.243 229.782 964.359 229.782ZM964.913 222.246C967.665 222.246 969.896 216.943 969.896 210.403C969.896 203.862 967.665 198.56 964.913 198.56C962.161 198.56 959.93 203.862 959.93 210.403C959.93 216.943 962.161 222.246 964.913 222.246Z"/>
</mask>
<path fill-rule="evenodd" clip-rule="evenodd" d="M964.359 229.782C970.475 229.782 975.433 221.106 975.433 210.403C975.433 199.7 970.475 191.024 964.359 191.024C958.243 191.024 953.285 199.7 953.285 210.403C953.285 221.106 958.243 229.782 964.359 229.782ZM964.913 222.246C967.665 222.246 969.896 216.943 969.896 210.403C969.896 203.862 967.665 198.56 964.913 198.56C962.161 198.56 959.93 203.862 959.93 210.403C959.93 216.943 962.161 222.246 964.913 222.246Z" fill="#202385"/>
<path d="M974.433 210.403C974.433 215.612 973.224 220.28 971.321 223.61C969.402 226.968 966.903 228.782 964.359 228.782V230.782C967.931 230.782 970.969 228.258 973.058 224.602C975.163 220.918 976.433 215.896 976.433 210.403H974.433ZM964.359 192.024C966.903 192.024 969.402 193.837 971.321 197.196C973.224 200.526 974.433 205.193 974.433 210.403H976.433C976.433 204.91 975.163 199.887 973.058 196.203C970.969 192.548 967.931 190.024 964.359 190.024V192.024ZM954.285 210.403C954.285 205.193 955.494 200.526 957.397 197.196C959.316 193.837 961.815 192.024 964.359 192.024V190.024C960.787 190.024 957.749 192.548 955.661 196.203C953.556 199.887 952.285 204.91 952.285 210.403H954.285ZM964.359 228.782C961.815 228.782 959.316 226.968 957.397 223.61C955.494 220.28 954.285 215.612 954.285 210.403H952.285C952.285 215.896 953.556 220.918 955.661 224.602C957.749 228.258 960.787 230.782 964.359 230.782V228.782ZM968.896 210.403C968.896 213.573 968.353 216.396 967.515 218.389C967.095 219.388 966.62 220.131 966.144 220.61C965.671 221.084 965.256 221.246 964.913 221.246V223.246C965.946 223.246 966.841 222.744 967.561 222.02C968.278 221.3 968.877 220.309 969.358 219.165C970.323 216.872 970.896 213.773 970.896 210.403H968.896ZM964.913 199.56C965.256 199.56 965.671 199.721 966.144 200.196C966.62 200.674 967.095 201.418 967.515 202.416C968.353 204.41 968.896 207.233 968.896 210.403H970.896C970.896 207.032 970.323 203.934 969.358 201.641C968.877 200.496 968.278 199.505 967.561 198.785C966.841 198.062 965.946 197.56 964.913 197.56V199.56ZM960.93 210.403C960.93 207.233 961.472 204.41 962.311 202.416C962.731 201.418 963.206 200.674 963.682 200.196C964.154 199.721 964.569 199.56 964.913 199.56V197.56C963.88 197.56 962.984 198.062 962.264 198.785C961.548 199.505 960.949 200.496 960.467 201.641C959.502 203.934 958.93 207.032 958.93 210.403H960.93ZM964.913 221.246C964.569 221.246 964.154 221.084 963.682 220.61C963.206 220.131 962.731 219.388 962.311 218.389C961.472 216.396 960.93 213.573 960.93 210.403H958.93C958.93 213.773 959.502 216.872 960.467 219.165C960.949 220.309 961.548 221.3 962.264 222.02C962.984 222.744 963.88 223.246 964.913 223.246V221.246Z" fill="#FFEC9C" mask="url(#path-43-inside-4)"/>
</g>
<g filter="url(#filter14_d)">
<path d="M934.46 196.007V189.362H953.839V196.007H948.856V230.336H941.104V196.007H934.46Z" fill="#202385"/>
<path d="M934.46 196.007V189.362H953.839V196.007H948.856V230.336H941.104V196.007H934.46Z" stroke="#FFEC9C"/>
</g>
<g filter="url(#filter15_d)">
<path d="M1021 187.087C1012.86 182.391 1004.42 187.739 1001.22 191L994 188.5L995 181.87L1021 176V187.087Z" fill="#430200" stroke="#FFEC9C"/>
<path d="M994 188.5V169.5L1036.5 159L1037 182C1023.8 193.2 1019 233.333 1018.5 251H1004.5C1004.5 211.4 1015.17 187.833 1020.5 182C1009.7 178.8 998.333 185 994 188.5Z" fill="#E50012" stroke="#FFEC9C"/>
<path d="M1044.5 167L1036.5 159V180C1020.5 192.4 1017.83 232.5 1018.5 251L1031 240.5C1026.6 217.3 1038.17 193.167 1044.5 184V167Z" fill="#810201" stroke="#FFEC9C"/>
</g>
<circle opacity="0.5" cx="991" cy="169" r="15" fill="url(#paint24_radial)"/>
<defs>
<filter id="filter0_d" x="84.4418" y="89.5782" width="324.529" height="251.422" filterUnits="userSpaceOnUse" color-interpolation-filters="sRGB">
<feFlood flood-opacity="0" result="BackgroundImageFix"/>
<feColorMatrix in="SourceAlpha" type="matrix" values="0 0 0 0 0 0 0 0 0 0 0 0 0 0 0 0 0 0 127 0"/>
<feOffset dy="6"/>
<feGaussianBlur stdDeviation="3"/>
<feColorMatrix type="matrix" values="0 0 0 0 1 0 0 0 0 1 0 0 0 0 1 0 0 0 0.5 0"/>
<feBlend mode="normal" in2="BackgroundImageFix" result="effect1_dropShadow"/>
<feBlend mode="normal" in="SourceGraphic" in2="effect1_dropShadow" result="shape"/>
</filter>
<filter id="filter1_d" x="223.926" y="169.406" width="116.97" height="86.6533" filterUnits="userSpaceOnUse" color-interpolation-filters="sRGB">
<feFlood flood-opacity="0" result="BackgroundImageFix"/>
<feColorMatrix in="SourceAlpha" type="matrix" values="0 0 0 0 0 0 0 0 0 0 0 0 0 0 0 0 0 0 127 0"/>
<feOffset dy="4"/>
<feGaussianBlur stdDeviation="2"/>
<feColorMatrix type="matrix" values="0 0 0 0 1 0 0 0 0 1 0 0 0 0 1 0 0 0 0.25 0"/>
<feBlend mode="normal" in2="BackgroundImageFix" result="effect1_dropShadow"/>
<feBlend mode="normal" in="SourceGraphic" in2="effect1_dropShadow" result="shape"/>
</filter>
<filter id="filter2_d" x="237.213" y="186.153" width="45.9113" height="59.3059" filterUnits="userSpaceOnUse" color-interpolation-filters="sRGB">
<feFlood flood-opacity="0" result="BackgroundImageFix"/>
<feColorMatrix in="SourceAlpha" type="matrix" values="0 0 0 0 0 0 0 0 0 0 0 0 0 0 0 0 0 0 127 0"/>
<feOffset dy="4"/>
<feGaussianBlur stdDeviation="2"/>
<feColorMatrix type="matrix" values="0 0 0 0 1 0 0 0 0 1 0 0 0 0 1 0 0 0 0.5 0"/>
<feBlend mode="normal" in2="BackgroundImageFix" result="effect1_dropShadow"/>
<feBlend mode="normal" in="SourceGraphic" in2="effect1_dropShadow" result="shape"/>
</filter>
<filter id="filter3_d" x="150.5" y="176.681" width="42.3456" height="73.3523" filterUnits="userSpaceOnUse" color-interpolation-filters="sRGB">
<feFlood flood-opacity="0" result="BackgroundImageFix"/>
<feColorMatrix in="SourceAlpha" type="matrix" values="0 0 0 0 0 0 0 0 0 0 0 0 0 0 0 0 0 0 127 0"/>
<feOffset dy="6"/>
<feGaussianBlur stdDeviation="3"/>
<feColorMatrix type="matrix" values="0 0 0 0 1 0 0 0 0 0.982462 0 0 0 0 0.982462 0 0 0 0.5 0"/>
<feBlend mode="normal" in2="BackgroundImageFix" result="effect1_dropShadow"/>
<feBlend mode="normal" in="SourceGraphic" in2="effect1_dropShadow" result="shape"/>
</filter>
<filter id="filter4_d" x="175.916" y="182.164" width="49.651" height="65.1544" filterUnits="userSpaceOnUse" color-interpolation-filters="sRGB">
<feFlood flood-opacity="0" result="BackgroundImageFix"/>
<feColorMatrix in="SourceAlpha" type="matrix" values="0 0 0 0 0 0 0 0 0 0 0 0 0 0 0 0 0 0 127 0"/>
<feOffset dy="6"/>
<feGaussianBlur stdDeviation="3"/>
<feColorMatrix type="matrix" values="0 0 0 0 1 0 0 0 0 0.982462 0 0 0 0 0.982462 0 0 0 0.5 0"/>
<feBlend mode="normal" in2="BackgroundImageFix" result="effect1_dropShadow"/>
<feBlend mode="normal" in="SourceGraphic" in2="effect1_dropShadow" result="shape"/>
</filter>
<filter id="filter5_d" x="231.285" y="191.023" width="34.1477" height="50.7584" filterUnits="userSpaceOnUse" color-interpolation-filters="sRGB">
<feFlood flood-opacity="0" result="BackgroundImageFix"/>
<feColorMatrix in="SourceAlpha" type="matrix" values="0 0 0 0 0 0 0 0 0 0 0 0 0 0 0 0 0 0 127 0"/>
<feOffset dy="6"/>
<feGaussianBlur stdDeviation="3"/>
<feColorMatrix type="matrix" values="0 0 0 0 1 0 0 0 0 0.982462 0 0 0 0 0.982462 0 0 0 0.5 0"/>
<feBlend mode="normal" in2="BackgroundImageFix" result="effect1_dropShadow"/>
<feBlend mode="normal" in="SourceGraphic" in2="effect1_dropShadow" result="shape"/>
</filter>
<filter id="filter6_d" x="211.96" y="188.862" width="32.3792" height="53.9732" filterUnits="userSpaceOnUse" color-interpolation-filters="sRGB">
<feFlood flood-opacity="0" result="BackgroundImageFix"/>
<feColorMatrix in="SourceAlpha" type="matrix" values="0 0 0 0 0 0 0 0 0 0 0 0 0 0 0 0 0 0 127 0"/>
<feOffset dy="6"/>
<feGaussianBlur stdDeviation="3"/>
<feColorMatrix type="matrix" values="0 0 0 0 1 0 0 0 0 0.982462 0 0 0 0 0.982462 0 0 0 0.5 0"/>
<feBlend mode="normal" in2="BackgroundImageFix" result="effect1_dropShadow"/>
<feBlend mode="normal" in="SourceGraphic" in2="effect1_dropShadow" result="shape"/>
</filter>
<filter id="filter7_d" x="271.444" y="157.793" width="63.5563" height="106.249" filterUnits="userSpaceOnUse" color-interpolation-filters="sRGB">
<feFlood flood-opacity="0" result="BackgroundImageFix"/>
<feColorMatrix in="SourceAlpha" type="matrix" values="0 0 0 0 0 0 0 0 0 0 0 0 0 0 0 0 0 0 127 0"/>
<feOffset dy="6"/>
<feGaussianBlur stdDeviation="3"/>
<feColorMatrix type="matrix" values="0 0 0 0 1 0 0 0 0 1 0 0 0 0 1 0 0 0 0.5 0"/>
<feBlend mode="normal" in2="BackgroundImageFix" result="effect1_dropShadow"/>
<feBlend mode="normal" in="SourceGraphic" in2="effect1_dropShadow" result="shape"/>
</filter>
<filter id="filter8_d" x="800.442" y="89.5785" width="324.529" height="251.422" filterUnits="userSpaceOnUse" color-interpolation-filters="sRGB">
<feFlood flood-opacity="0" result="BackgroundImageFix"/>
<feColorMatrix in="SourceAlpha" type="matrix" values="0 0 0 0 0 0 0 0 0 0 0 0 0 0 0 0 0 0 127 0"/>
<feOffset dy="6"/>
<feGaussianBlur stdDeviation="3"/>
<feColorMatrix type="matrix" values="0 0 0 0 1 0 0 0 0 1 0 0 0 0 1 0 0 0 0.5 0"/>
<feBlend mode="normal" in2="BackgroundImageFix" result="effect1_dropShadow"/>
<feBlend mode="normal" in="SourceGraphic" in2="effect1_dropShadow" result="shape"/>
</filter>
<filter id="filter9_d" x="939.926" y="169.406" width="116.97" height="86.6533" filterUnits="userSpaceOnUse" color-interpolation-filters="sRGB">
<feFlood flood-opacity="0" result="BackgroundImageFix"/>
<feColorMatrix in="SourceAlpha" type="matrix" values="0 0 0 0 0 0 0 0 0 0 0 0 0 0 0 0 0 0 127 0"/>
<feOffset dy="4"/>
<feGaussianBlur stdDeviation="2"/>
<feColorMatrix type="matrix" values="0 0 0 0 1 0 0 0 0 1 0 0 0 0 1 0 0 0 0.25 0"/>
<feBlend mode="normal" in2="BackgroundImageFix" result="effect1_dropShadow"/>
<feBlend mode="normal" in="SourceGraphic" in2="effect1_dropShadow" result="shape"/>
</filter>
<filter id="filter10_d" x="953.213" y="186.153" width="45.9113" height="59.3059" filterUnits="userSpaceOnUse" color-interpolation-filters="sRGB">
<feFlood flood-opacity="0" result="BackgroundImageFix"/>
<feColorMatrix in="SourceAlpha" type="matrix" values="0 0 0 0 0 0 0 0 0 0 0 0 0 0 0 0 0 0 127 0"/>
<feOffset dy="4"/>
<feGaussianBlur stdDeviation="2"/>
<feColorMatrix type="matrix" values="0 0 0 0 1 0 0 0 0 1 0 0 0 0 1 0 0 0 0.5 0"/>
<feBlend mode="normal" in2="BackgroundImageFix" result="effect1_dropShadow"/>
<feBlend mode="normal" in="SourceGraphic" in2="effect1_dropShadow" result="shape"/>
</filter>
<filter id="filter11_d" x="866.5" y="176.681" width="42.3456" height="73.3523" filterUnits="userSpaceOnUse" color-interpolation-filters="sRGB">
<feFlood flood-opacity="0" result="BackgroundImageFix"/>
<feColorMatrix in="SourceAlpha" type="matrix" values="0 0 0 0 0 0 0 0 0 0 0 0 0 0 0 0 0 0 127 0"/>
<feOffset dy="6"/>
<feGaussianBlur stdDeviation="3"/>
<feColorMatrix type="matrix" values="0 0 0 0 1 0 0 0 0 0.982462 0 0 0 0 0.982462 0 0 0 0.5 0"/>
<feBlend mode="normal" in2="BackgroundImageFix" result="effect1_dropShadow"/>
<feBlend mode="normal" in="SourceGraphic" in2="effect1_dropShadow" result="shape"/>
</filter>
<filter id="filter12_d" x="891.916" y="182.164" width="49.651" height="65.1544" filterUnits="userSpaceOnUse" color-interpolation-filters="sRGB">
<feFlood flood-opacity="0" result="BackgroundImageFix"/>
<feColorMatrix in="SourceAlpha" type="matrix" values="0 0 0 0 0 0 0 0 0 0 0 0 0 0 0 0 0 0 127 0"/>
<feOffset dy="6"/>
<feGaussianBlur stdDeviation="3"/>
<feColorMatrix type="matrix" values="0 0 0 0 1 0 0 0 0 0.982462 0 0 0 0 0.982462 0 0 0 0.5 0"/>
<feBlend mode="normal" in2="BackgroundImageFix" result="effect1_dropShadow"/>
<feBlend mode="normal" in="SourceGraphic" in2="effect1_dropShadow" result="shape"/>
</filter>
<filter id="filter13_d" x="947.285" y="191.024" width="34.1477" height="50.7584" filterUnits="userSpaceOnUse" color-interpolation-filters="sRGB">
<feFlood flood-opacity="0" result="BackgroundImageFix"/>
<feColorMatrix in="SourceAlpha" type="matrix" values="0 0 0 0 0 0 0 0 0 0 0 0 0 0 0 0 0 0 127 0"/>
<feOffset dy="6"/>
<feGaussianBlur stdDeviation="3"/>
<feColorMatrix type="matrix" values="0 0 0 0 1 0 0 0 0 0.982462 0 0 0 0 0.982462 0 0 0 0.5 0"/>
<feBlend mode="normal" in2="BackgroundImageFix" result="effect1_dropShadow"/>
<feBlend mode="normal" in="SourceGraphic" in2="effect1_dropShadow" result="shape"/>
</filter>
<filter id="filter14_d" x="927.96" y="188.862" width="32.3792" height="53.9732" filterUnits="userSpaceOnUse" color-interpolation-filters="sRGB">
<feFlood flood-opacity="0" result="BackgroundImageFix"/>
<feColorMatrix in="SourceAlpha" type="matrix" values="0 0 0 0 0 0 0 0 0 0 0 0 0 0 0 0 0 0 127 0"/>
<feOffset dy="6"/>
<feGaussianBlur stdDeviation="3"/>
<feColorMatrix type="matrix" values="0 0 0 0 1 0 0 0 0 0.982462 0 0 0 0 0.982462 0 0 0 0.5 0"/>
<feBlend mode="normal" in2="BackgroundImageFix" result="effect1_dropShadow"/>
<feBlend mode="normal" in="SourceGraphic" in2="effect1_dropShadow" result="shape"/>
</filter>
<filter id="filter15_d" x="987.444" y="157.793" width="63.5563" height="106.249" filterUnits="userSpaceOnUse" color-interpolation-filters="sRGB">
<feFlood flood-opacity="0" result="BackgroundImageFix"/>
<feColorMatrix in="SourceAlpha" type="matrix" values="0 0 0 0 0 0 0 0 0 0 0 0 0 0 0 0 0 0 127 0"/>
<feOffset dy="6"/>
<feGaussianBlur stdDeviation="3"/>
<feColorMatrix type="matrix" values="0 0 0 0 1 0 0 0 0 1 0 0 0 0 1 0 0 0 0.5 0"/>
<feBlend mode="normal" in2="BackgroundImageFix" result="effect1_dropShadow"/>
<feBlend mode="normal" in="SourceGraphic" in2="effect1_dropShadow" result="shape"/>
</filter>
<radialGradient id="paint0_radial" cx="0" cy="0" r="1" gradientUnits="userSpaceOnUse" gradientTransform="translate(600.5 183.5) rotate(90) scale(144.5 554.5)">
<stop stop-color="#C42B2B"/>
<stop offset="1" stop-color="#6A0404"/>
</radialGradient>
<radialGradient id="paint1_radial" cx="0" cy="0" r="1" gradientUnits="userSpaceOnUse" gradientTransform="translate(588.07 190.274) rotate(101.964) scale(287.434 333.706)">
<stop stop-color="#D6557F"/>
<stop offset="0.3204" stop-color="#C73D6C"/>
<stop offset="1" stop-color="#6F0535"/>
</radialGradient>
<radialGradient id="paint2_radial" cx="0" cy="0" r="1" gradientUnits="userSpaceOnUse" gradientTransform="translate(589.05 189.573) rotate(95.9334) scale(294.346 173.254)">
<stop stop-color="#D6557F"/>
<stop offset="0.3204" stop-color="#C73D6C"/>
<stop offset="1" stop-color="#6F0535"/>
</radialGradient>
<radialGradient id="paint3_radial" cx="0" cy="0" r="1" gradientUnits="userSpaceOnUse" gradientTransform="translate(915.938 193.744) rotate(102.303) scale(306.422 365.193)">
<stop stop-color="#D6557F"/>
<stop offset="0.3204" stop-color="#C73D6C"/>
<stop offset="1" stop-color="#6F0535"/>
</radialGradient>
<radialGradient id="paint4_radial" cx="0" cy="0" r="1" gradientUnits="userSpaceOnUse" gradientTransform="translate(750.857 188.675) rotate(97.0489) scale(259.999 181.274)">
<stop stop-color="#D6557F"/>
<stop offset="0.3204" stop-color="#C73D6C"/>
<stop offset="1" stop-color="#6F0535"/>
</radialGradient>
<radialGradient id="paint5_radial" cx="0" cy="0" r="1" gradientUnits="userSpaceOnUse" gradientTransform="translate(664.766 186.787) rotate(92.9332) scale(301.434 88.1875)">
<stop stop-color="#D6557F"/>
<stop offset="0.3204" stop-color="#C73D6C"/>
<stop offset="1" stop-color="#6F0535"/>
</radialGradient>
<radialGradient id="paint6_radial" cx="0" cy="0" r="1" gradientUnits="userSpaceOnUse" gradientTransform="translate(1039.96 192.375) rotate(113.433) scale(226.48 473.083)">
<stop stop-color="#D6557F"/>
<stop offset="0.3204" stop-color="#C73D6C"/>
<stop offset="1" stop-color="#6F0535"/>
</radialGradient>
<radialGradient id="paint7_radial" cx="0" cy="0" r="1" gradientUnits="userSpaceOnUse" gradientTransform="translate(1189.88 228.267) rotate(144.141) scale(149.651 406.736)">
<stop stop-color="#D6557F"/>
<stop offset="0.3204" stop-color="#C73D6C"/>
<stop offset="1" stop-color="#6F0535"/>
</radialGradient>
<radialGradient id="paint8_radial" cx="0" cy="0" r="1" gradientUnits="userSpaceOnUse" gradientTransform="translate(1183.69 404.729) rotate(109.58) scale(358.137 647.342)">
<stop stop-color="#D6557F"/>
<stop offset="0.3204" stop-color="#C73D6C"/>
<stop offset="1" stop-color="#6F0535"/>
</radialGradient>
<radialGradient id="paint9_radial" cx="0" cy="0" r="1" gradientUnits="userSpaceOnUse" gradientTransform="translate(589.569 426.842) rotate(102.785) scale(373.683 461.657)">
<stop stop-color="#D6557F"/>
<stop offset="0.3204" stop-color="#C73D6C"/>
<stop offset="1" stop-color="#6F0535"/>
</radialGradient>
<radialGradient id="paint10_radial" cx="0" cy="0" r="1" gradientUnits="userSpaceOnUse" gradientTransform="translate(587.449 452.428) rotate(96.94) scale(404.32 277.625)">
<stop stop-color="#D6557F"/>
<stop offset="0.3204" stop-color="#C73D6C"/>
<stop offset="1" stop-color="#6F0535"/>
</radialGradient>
<radialGradient id="paint11_radial" cx="0" cy="0" r="1" gradientUnits="userSpaceOnUse" gradientTransform="translate(589.281 410.686) rotate(93.2056) scale(336.301 107.489)">
<stop stop-color="#D6557F"/>
<stop offset="0.3204" stop-color="#C73D6C"/>
<stop offset="1" stop-color="#6F0535"/>
</radialGradient>
<radialGradient id="paint12_radial" cx="0" cy="0" r="1" gradientUnits="userSpaceOnUse" gradientTransform="translate(737.985 426.37) rotate(94.735) scale(363.48 171.182)">
<stop stop-color="#D6557F"/>
<stop offset="0.3204" stop-color="#C73D6C"/>
<stop offset="1" stop-color="#6F0535"/>
</radialGradient>
<radialGradient id="paint13_radial" cx="0" cy="0" r="1" gradientUnits="userSpaceOnUse" gradientTransform="translate(929.775 426.413) rotate(100.591) scale(370.199 382.867)">
<stop stop-color="#D6557F"/>
<stop offset="0.3204" stop-color="#C73D6C"/>
<stop offset="1" stop-color="#6F0535"/>
</radialGradient>
<radialGradient id="paint14_radial" cx="0" cy="0" r="1" gradientUnits="userSpaceOnUse" gradientTransform="translate(595.011 192.702) rotate(111.674) scale(320.383 629.501)">
<stop stop-color="#D6557F"/>
<stop offset="0.3204" stop-color="#C73D6C"/>
<stop offset="1" stop-color="#6F0535"/>
</radialGradient>
<radialGradient id="paint15_radial" cx="0" cy="0" r="1" gradientUnits="userSpaceOnUse" gradientTransform="translate(595.145 208.009) rotate(143.363) scale(147.495 404.323)">
<stop stop-color="#D6557F"/>
<stop offset="0.3204" stop-color="#C73D6C"/>
<stop offset="1" stop-color="#6F0535"/>
</radialGradient>
<radialGradient id="paint16_radial" cx="0" cy="0" r="1" gradientUnits="userSpaceOnUse" gradientTransform="translate(594.204 355.675) rotate(114.363) scale(283.258 609.359)">
<stop stop-color="#D6557F"/>
<stop offset="0.3204" stop-color="#C73D6C"/>
<stop offset="1" stop-color="#6F0535"/>
</radialGradient>
<radialGradient id="paint17_radial" cx="0" cy="0" r="1" gradientUnits="userSpaceOnUse" gradientTransform="translate(367.5 153.5) rotate(90) scale(56.5)">
<stop stop-color="white"/>
<stop offset="1" stop-color="white" stop-opacity="0"/>
</radialGradient>
<radialGradient id="paint18_radial" cx="0" cy="0" r="1" gradientUnits="userSpaceOnUse" gradientTransform="translate(56.5 56.5) rotate(90) scale(56.5)">
<stop stop-color="white"/>
<stop offset="1" stop-color="white" stop-opacity="0"/>
</radialGradient>
<radialGradient id="paint19_radial" cx="0" cy="0" r="1" gradientUnits="userSpaceOnUse" gradientTransform="translate(1143.5 316.5) rotate(90) scale(56.5)">
<stop stop-color="white"/>
<stop offset="1" stop-color="white" stop-opacity="0"/>
</radialGradient>
<radialGradient id="paint20_radial" cx="0" cy="0" r="1" gradientUnits="userSpaceOnUse" gradientTransform="translate(865.5 140.5) rotate(90) scale(56.5)">
<stop stop-color="white"/>
<stop offset="1" stop-color="white" stop-opacity="0"/>
</radialGradient>
<radialGradient id="paint21_radial" cx="0" cy="0" r="1" gradientUnits="userSpaceOnUse" gradientTransform="translate(586 189) rotate(90) scale(122)">
<stop stop-color="white"/>
<stop offset="1" stop-color="white" stop-opacity="0"/>
</radialGradient>
<radialGradient id="paint22_radial" cx="0" cy="0" r="1" gradientUnits="userSpaceOnUse" gradientTransform="translate(1050.5 132.5) rotate(90) scale(56.5)">
<stop stop-color="white"/>
<stop offset="1" stop-color="white" stop-opacity="0"/>
</radialGradient>
<radialGradient id="paint23_radial" cx="0" cy="0" r="1" gradientUnits="userSpaceOnUse" gradientTransform="translate(275 169) rotate(90) scale(15)">
<stop stop-color="white"/>
<stop offset="1" stop-color="white" stop-opacity="0"/>
</radialGradient>
<radialGradient id="paint24_radial" cx="0" cy="0" r="1" gradientUnits="userSpaceOnUse" gradientTransform="translate(991 169) rotate(90) scale(15)">
<stop stop-color="white"/>
<stop offset="1" stop-color="white" stop-opacity="0"/>
</radialGradient>
</defs>
</svg>
