<svg width="337" height="56" viewBox="0 0 337 56" fill="none" xmlns="http://www.w3.org/2000/svg">
    <path d="M306.303 5.74902H25.4454V5.75102C25.4084 5.75102 25.3714 5.74902 25.3294 5.74902C11.6754 5.74902 0.609375 16.812 0.609375 30.469C0.609375 44.123 11.6744 55.189 25.3294 55.189C25.3714 55.189 25.4084 55.181 25.4454 55.181V55.191H323.004C323.004 55.191 323.004 41.312 323.004 33.624V5.74902H306.303Z" fill="#D5D8DC"/>
    <path d="M321.393 0.285034H319.332C317.742 18.644 313.661 35.5 307.736 49.73H321.391V49.759C329.461 49.759 336 52.231 336 55.284V8.87903C336.002 4.13203 329.463 0.285034 321.393 0.285034Z" fill="url(#paint0_linear)"/>
    <path d="M25.3294 0.285034C25.3714 0.285034 25.4084 0.291035 25.4454 0.291035V0.285034H320.72C319.192 18.691 315.092 35.569 309.109 49.727L25.4454 49.721C25.4084 49.721 25.3714 49.727 25.3294 49.727C11.6754 49.727 0.609375 38.66 0.609375 25.007C0.609375 11.354 11.6754 0.285034 25.3294 0.285034Z" fill="url(#paint1_linear)"/>
    <path d="M22.6036 46.515L321.394 46.513C326.108 46.513 333.803 48.784 336.003 53.689V55.054C335.985 55.043 335.956 55.03 335.935 55.023C335.567 52.099 329.226 49.76 321.394 49.76V49.73H314.373L25.4466 49.722C25.4096 49.722 25.3726 49.728 25.3306 49.728C13.6566 49.728 3.89664 41.627 1.30664 30.749C5.21664 38.903 14.0776 46.515 22.6036 46.515Z" fill="#0852A3"/>
    <path d="M325.89 4.50708L22.7881 4.50108C15.2711 4.50708 6.86914 10.8781 2.99414 18.1951C5.91814 8.62708 14.8421 1.65308 25.4451 1.65308H321.392C327.827 1.65308 333.324 4.31608 334.41 7.68508C333.555 6.69408 330.879 4.50708 325.89 4.50708Z" fill="#62C8F2"/>
    <path d="M22.8599 46.735C11.8689 46.468 2.98989 37.596 2.71289 26.608C4.05589 36.222 13.2079 44.11 22.8599 46.735Z" fill="#62C8F2"/>
    <!--<path d="M30.1552 31.1V26.24H39.9052V22.46H30.1552V17.9H41.1952V14H25.3252V35H41.5852V31.1H30.1552ZM60.4871 35L54.2471 26.75L60.2471 18.86H55.2671L51.7571 23.57L48.3371 18.86H43.0871L49.0871 26.87L42.8771 35H47.9771L51.6371 30.05L55.1771 35H60.4871ZM71.9089 30.92C71.3989 31.31 70.7089 31.52 70.0189 31.52C68.7589 31.52 68.0089 30.77 68.0089 29.39V22.82H72.0289V19.22H68.0089V15.29H63.3289V19.22H60.8389V22.82H63.3289V29.45C63.3289 33.29 65.5489 35.24 69.3589 35.24C70.7989 35.24 72.2089 34.91 73.1689 34.22L71.9089 30.92ZM80.266 20.99V18.86H75.796V35H80.476V27.38C80.476 24.29 82.186 22.88 84.766 22.88C85.126 22.88 85.426 22.91 85.816 22.94V18.62C83.326 18.62 81.406 19.43 80.266 20.99ZM95.0208 18.62C92.4408 18.62 89.8308 19.31 88.0608 20.57L89.7408 23.84C90.9108 22.91 92.6808 22.34 94.3908 22.34C96.9108 22.34 98.1108 23.51 98.1108 25.52H94.3908C89.4708 25.52 87.4608 27.5 87.4608 30.35C87.4608 33.14 89.7108 35.24 93.4908 35.24C95.8608 35.24 97.5408 34.46 98.4108 32.99V35H102.791V25.79C102.791 20.9 99.9408 18.62 95.0208 18.62ZM94.6608 32.09C93.0108 32.09 92.0208 31.31 92.0208 30.14C92.0208 29.06 92.7108 28.25 94.9008 28.25H98.1108V29.9C97.5708 31.37 96.2208 32.09 94.6608 32.09ZM131.273 24.08C132.983 23.18 134.063 21.56 134.063 19.46C134.063 16.19 131.363 14 126.113 14H115.853V35H126.713C132.233 35 135.113 32.9 135.113 29.27C135.113 26.63 133.613 24.83 131.273 24.08ZM125.513 17.66C127.883 17.66 129.173 18.47 129.173 20.12C129.173 21.77 127.883 22.61 125.513 22.61H120.683V17.66H125.513ZM126.353 31.34H120.683V26.15H126.353C128.873 26.15 130.223 26.99 130.223 28.76C130.223 30.56 128.873 31.34 126.353 31.34ZM154.272 26.99C154.272 21.8 150.612 18.62 145.872 18.62C140.952 18.62 137.262 22.1 137.262 26.93C137.262 31.73 140.892 35.24 146.472 35.24C149.382 35.24 151.632 34.34 153.132 32.63L150.642 29.93C149.532 30.98 148.302 31.49 146.592 31.49C144.132 31.49 142.422 30.26 141.972 28.25H154.182C154.212 27.86 154.272 27.35 154.272 26.99ZM145.902 22.16C148.002 22.16 149.532 23.48 149.862 25.52H141.912C142.242 23.45 143.772 22.16 145.902 22.16ZM167.198 18.62C165.008 18.62 163.118 19.37 161.858 20.75V18.86H157.388V35H162.068V27.02C162.068 24.05 163.688 22.67 165.938 22.67C168.008 22.67 169.208 23.87 169.208 26.48V35H173.888V25.76C173.888 20.84 171.008 18.62 167.198 18.62ZM194.116 26.99C194.116 21.8 190.456 18.62 185.716 18.62C180.796 18.62 177.106 22.1 177.106 26.93C177.106 31.73 180.736 35.24 186.316 35.24C189.226 35.24 191.476 34.34 192.976 32.63L190.486 29.93C189.376 30.98 188.146 31.49 186.436 31.49C183.976 31.49 182.266 30.26 181.816 28.25H194.026C194.056 27.86 194.116 27.35 194.116 26.99ZM185.746 22.16C187.846 22.16 189.376 23.48 189.706 25.52H181.756C182.086 23.45 183.616 22.16 185.746 22.16ZM213.582 16.61C215.322 16.61 216.492 15.47 216.492 13.91C216.492 12.47 215.322 11.39 213.582 11.39C211.842 11.39 210.672 12.53 210.672 14C210.672 15.47 211.842 16.61 213.582 16.61ZM204.492 16.19C205.212 16.19 205.872 16.4 206.382 16.76L207.612 13.37C206.742 12.77 205.362 12.5 204.042 12.5C200.022 12.5 197.802 14.87 197.802 18.5V19.22H195.312V22.82H197.802V35H202.482V22.82H206.502V19.22H202.362V18.53C202.362 16.94 203.112 16.19 204.492 16.19ZM211.242 35H215.922V18.86H211.242V35ZM229.409 30.92C228.899 31.31 228.209 31.52 227.519 31.52C226.259 31.52 225.509 30.77 225.509 29.39V22.82H229.529V19.22H225.509V15.29H220.829V19.22H218.339V22.82H220.829V29.45C220.829 33.29 223.049 35.24 226.859 35.24C228.299 35.24 229.709 34.91 230.669 34.22L229.409 30.92ZM238.726 35.24C243.556 35.24 246.346 33.11 246.346 30.11C246.346 23.75 236.596 26.42 236.596 23.66C236.596 22.82 237.496 22.16 239.596 22.16C241.066 22.16 242.656 22.46 244.246 23.36L245.806 20.03C244.276 19.13 241.816 18.62 239.596 18.62C234.886 18.62 232.126 20.78 232.126 23.84C232.126 30.29 241.876 27.59 241.876 30.23C241.876 31.13 241.066 31.7 238.906 31.7C236.926 31.7 234.736 31.07 233.296 30.14L231.736 33.5C233.236 34.49 235.996 35.24 238.726 35.24Z" fill="white"/>-->
    <defs>
        <linearGradient id="paint0_linear" x1="307.737" y1="27.7847" x2="336.001" y2="27.7847" gradientUnits="userSpaceOnUse">
            <stop stop-color="#256EB6"/>
            <stop offset="0.1204" stop-color="#2972B9"/>
            <stop offset="0.3021" stop-color="#357DC1"/>
            <stop offset="0.5225" stop-color="#4693CF"/>
            <stop offset="0.75" stop-color="#5BB0E2"/>
            <stop offset="0.7958" stop-color="#58ACE0"/>
            <stop offset="0.8557" stop-color="#4FA0D8"/>
            <stop offset="0.9234" stop-color="#408ECC"/>
            <stop offset="0.9965" stop-color="#2B77BD"/>
            <stop offset="1" stop-color="#2976BC"/>
        </linearGradient>
        <linearGradient id="paint1_linear" x1="160.664" y1="49.7271" x2="160.664" y2="0.285235" gradientUnits="userSpaceOnUse">
            <stop stop-color="#1F64B0"/>
            <stop offset="0.1455" stop-color="#2569B3"/>
            <stop offset="0.3829" stop-color="#3176BC"/>
            <stop offset="0.6824" stop-color="#448ECC"/>
            <stop offset="1" stop-color="#5BB0E2"/>
        </linearGradient>
    </defs>
</svg>
