<svg width="233" height="108" viewBox="0 0 233 108" fill="none" xmlns="http://www.w3.org/2000/svg">
    <path d="M232.273 3.795V0H0V3.795C1.305 3.795 2.363 4.708 2.363 5.834C2.363 6.959 1.305 7.873 0 7.873V10.171C1.305 10.171 2.363 11.084 2.363 12.21C2.363 13.337 1.305 14.25 0 14.25V16.547C1.305 16.547 2.364 17.46 2.364 18.587C2.364 19.714 1.305 20.624 0 20.624V22.922C1.305 22.922 2.364 23.835 2.364 24.961C2.364 26.087 1.305 27 0 27V29.297C1.305 29.297 2.364 30.21 2.364 31.336C2.364 32.462 1.305 33.375 0 33.375V35.673C1.305 35.673 2.364 36.586 2.364 37.712C2.364 38.839 1.305 39.752 0 39.752V40.337C8.733 40.337 15.813 46.445 15.813 53.981C15.813 61.369 9.002 67.371 0.504 67.602C1.567 67.802 2.364 68.616 2.364 69.593C2.364 70.718 1.305 71.631 0 71.631V73.929C1.305 73.929 2.364 74.842 2.364 75.968C2.364 77.095 1.305 78.007 0 78.007V80.304C1.305 80.304 2.364 81.217 2.364 82.343C2.364 83.47 1.305 84.382 0 84.382V86.679C1.305 86.679 2.364 87.593 2.364 88.719C2.364 89.845 1.305 90.756 0 90.756V93.055C1.305 93.055 2.364 93.967 2.364 95.094C2.364 96.22 1.305 97.132 0 97.132V99.43C1.305 99.43 2.364 100.343 2.364 101.469C2.364 102.594 1.305 103.508 0 103.508V107.309H232.273V103.514C231 103.514 229.967 102.6 229.967 101.475C229.967 100.348 230.999 99.435 232.273 99.435V97.137C231 97.137 229.967 96.225 229.967 95.098C229.967 93.971 230.999 93.059 232.273 93.059V90.761C231 90.761 229.967 89.848 229.967 88.723C229.967 87.596 230.999 86.683 232.273 86.683V84.385C231 84.385 229.967 83.473 229.967 82.346C229.967 81.22 230.999 80.307 232.273 80.307V78.01C231 78.01 229.967 77.097 229.967 75.971C229.967 74.844 230.999 73.932 232.273 73.932V71.634C231 71.634 229.967 70.721 229.967 69.595C229.967 68.617 230.744 67.804 231.781 67.604C223.493 67.373 216.85 61.371 216.85 53.983C216.85 46.447 223.753 40.338 232.272 40.338V39.753C230.999 39.753 229.966 38.84 229.966 37.713C229.966 36.587 230.998 35.674 232.272 35.674V33.377C230.999 33.377 229.966 32.464 229.966 31.338C229.966 30.212 230.998 29.299 232.272 29.299V27.002C230.999 27.002 229.966 26.089 229.966 24.963C229.966 23.837 230.998 22.924 232.272 22.924V20.626C230.999 20.626 229.966 19.713 229.966 18.587C229.966 17.461 230.998 16.548 232.272 16.548V14.25C230.999 14.25 229.966 13.337 229.966 12.211C229.966 11.085 230.998 10.171 232.272 10.171V7.874C230.999 7.874 229.966 6.961 229.966 5.835C229.966 4.709 231 3.795 232.273 3.795Z" fill="white"/>
</svg>