<svg width="103" height="88" viewBox="0 0 103 88" fill="none" xmlns="http://www.w3.org/2000/svg">
    <path d="M103 75.9599C103 69.6059 79.944 64.4569 51.5 64.4569C23.056 64.4569 0 69.6059 0 75.9599C0 82.3089 23.056 87.4569 51.5 87.4569C79.944 87.4569 103 82.3089 103 75.9599Z" fill="url(#paint0_radial)"/>
    <path d="M88.221 31.9089C91.569 52.5689 77.541 72.0319 56.885 75.3869C36.227 78.7369 16.762 64.7079 13.407 44.0489C10.055 23.3949 24.084 3.92591 44.742 0.573908C65.396 -2.78109 84.861 11.2509 88.221 31.9089Z" fill="url(#paint1_radial)"/>
    <path d="M88.1455 31.917C88.9615 36.96 88.7684 42.009 87.5675 46.926C86.4095 51.677 84.3645 56.107 81.4955 60.095C78.6225 64.075 75.0685 67.416 70.9275 70.019C66.6425 72.712 61.9135 74.489 56.8735 75.311C51.8335 76.128 46.7845 75.933 41.8645 74.734C37.1165 73.575 32.6885 71.532 28.7045 68.661C24.7195 65.786 21.3795 62.235 18.7745 58.095C16.0825 53.808 14.3015 49.082 13.4835 44.04C12.6695 39 12.8625 33.953 14.0595 29.033C15.2185 24.285 17.2605 19.855 20.1355 15.87C23.0075 11.885 26.5595 8.54496 30.6995 5.94096C34.9855 3.24796 39.7175 1.46796 44.7545 0.650955C49.7935 -0.168045 54.8435 0.0229546 59.7605 1.22295C64.5115 2.37995 68.9404 4.42396 72.9224 7.29696C76.9084 10.169 80.2485 13.725 82.8504 17.866C85.5454 22.149 87.3245 26.883 88.1455 31.917ZM44.7305 0.499955C39.6695 1.31696 34.9235 3.10896 30.6155 5.81596C26.4615 8.42395 22.8915 11.777 20.0085 15.78C17.1275 19.78 15.0745 24.228 13.9105 28.994C12.7095 33.933 12.5125 39.004 13.3335 44.064C14.1565 49.122 15.9435 53.87 18.6465 58.177C21.2575 62.333 24.6105 65.9 28.6135 68.78C32.6134 71.664 37.0615 73.719 41.8305 74.882C46.7685 76.085 51.8385 76.28 56.8955 75.459C61.9555 74.637 66.7014 72.85 71.0054 70.149C75.1634 67.537 78.7345 64.182 81.6185 60.182C84.4975 56.184 86.5505 51.732 87.7175 46.966C88.9174 42.025 89.1134 36.958 88.2944 31.896C87.4705 26.833 85.6815 22.09 82.9795 17.785C80.3695 13.629 77.0154 10.059 73.0115 7.17495C69.0115 4.29195 64.5645 2.23995 59.7985 1.07495C54.8575 -0.130045 49.7905 -0.322045 44.7305 0.499955Z" fill="#B92025"/>
    <path opacity="0.7" d="M34.4962 18.0459C31.2442 22.8059 22.6902 22.0389 25.9092 18.3219C31.2732 12.1289 39.1962 8.21094 48.0322 8.21094C41.3882 10.5159 37.1982 14.0919 34.4962 18.0459Z" fill="url(#paint2_linear)"/>
    <path d="M85.7415 42.0469C83.8575 28.9629 44.0666 55.5979 44.3986 68.4089C44.6466 78.0289 61.3585 74.5189 70.8735 68.7949C80.3865 63.0689 87.0435 51.0979 85.7415 42.0469Z" fill="url(#paint3_radial)"/>
    <path d="M47.0225 28.5L42.9475 40.9L38.9475 28.5H35.1975L31.0725 40.8L27.1225 28.5H22.9225L28.6725 46H32.9975L36.9725 34.15L40.8225 46H45.1725L50.8975 28.5H47.0225ZM53.1585 46L57.2085 46L57.2085 28.5H53.1585L53.1585 46ZM73.4116 28.5V39.125L64.7116 28.5H61.3616L61.3616 46H65.3616V35.375L74.0866 46H77.4116V28.5H73.4116Z" fill="white"/>
    <defs>
        <radialGradient id="paint0_radial" cx="0" cy="0" r="1" gradientUnits="userSpaceOnUse" gradientTransform="translate(51.4996 75.9569) scale(51.5001 11.5)">
            <stop offset="0.0056"/>
            <stop offset="0.2763" stop-color="#656667"/>
            <stop offset="0.5712" stop-color="#CDCFD2"/>
            <stop offset="0.703" stop-color="#F7F9FD"/>
        </radialGradient>
        <radialGradient id="paint1_radial" cx="0" cy="0" r="1" gradientUnits="userSpaceOnUse" gradientTransform="translate(50.8147 37.9814) rotate(-9.21836) scale(37.8961)">
            <stop offset="0.0393" stop-color="#F04A26"/>
            <stop offset="0.3117" stop-color="#E34326"/>
            <stop offset="0.7179" stop-color="#CC3026"/>
            <stop offset="1" stop-color="#B92025"/>
        </radialGradient>
        <linearGradient id="paint2_linear" x1="25.1755" y1="22.5038" x2="48.3268" y2="3.79244" gradientUnits="userSpaceOnUse">
            <stop stop-color="#F26C62"/>
            <stop offset="0.4719" stop-color="#F9B3A5"/>
            <stop offset="0.8315" stop-color="#FEE7E0"/>
            <stop offset="1" stop-color="white"/>
        </linearGradient>
        <radialGradient id="paint3_radial" cx="0" cy="0" r="1" gradientUnits="userSpaceOnUse" gradientTransform="translate(65.4941 58.3661) rotate(-31.0283) scale(20.3363 15.4295)">
            <stop offset="0.0393" stop-color="#F04A26"/>
            <stop offset="1" stop-color="#F04A26"/>
        </radialGradient>
    </defs>
</svg>