<svg width="103" height="80" viewBox="0 0 103 80" fill="none" xmlns="http://www.w3.org/2000/svg">
<path d="M103 67.9599C103 61.6059 79.944 56.4569 51.5 56.4569C23.056 56.4569 0 61.6059 0 67.9599C0 74.3089 23.056 79.4569 51.5 79.4569C79.944 79.4569 103 74.3089 103 67.9599Z" fill="url(#paint0_radial)"/>
<path d="M87.8413 15.0579C87.8452 15.0656 87.8481 15.071 87.851 15.0758C87.8481 15.0715 87.8452 15.0656 87.8413 15.0579Z" fill="url(#paint1_linear)"/>
<path d="M87.8096 14.999C87.8107 15.0012 87.8124 15.0035 87.8141 15.007C87.8124 15.0035 87.8107 15.0018 87.8096 14.999Z" fill="url(#paint2_linear)"/>
<path d="M87.8135 15.0056C87.8255 15.0281 87.8351 15.0459 87.8428 15.0588C87.8351 15.0454 87.8255 15.0281 87.8135 15.0056Z" fill="url(#paint3_linear)"/>
<path d="M87.8572 15.0856C87.8572 15.0871 87.8552 15.083 87.8511 15.0753C87.8531 15.0779 87.8542 15.0815 87.8552 15.0825C87.8557 15.0835 87.8562 15.0846 87.8572 15.0856Z" fill="url(#paint4_linear)"/>
<path d="M87.6935 14.784C87.7317 14.8542 87.7703 14.9254 87.808 14.9957C87.809 14.9971 87.809 14.998 87.8099 14.999C87.6694 14.7392 87.2593 13.9826 87.1499 13.7798C87.3083 14.0726 87.4667 14.3654 87.6256 14.6576C87.6501 14.7043 87.6727 14.7458 87.6935 14.784Z" fill="url(#paint5_linear)"/>
<path d="M93.8599 31.257C93.8603 31.2215 93.8608 31.1764 93.8599 31.257V31.257Z" fill="url(#paint6_linear)"/>
<path d="M93.8602 31.2566C93.8602 31.2854 93.8602 31.3099 93.8602 31.2566C93.871 30.1445 93.7914 29.0376 93.6132 27.9397C93.534 27.4536 93.5024 26.9478 93.2638 26.5117C93.0734 26.1643 92.8834 25.8164 92.6929 25.4684C92.9239 25.8904 93.1545 26.3118 93.3855 26.7338C93.0531 25.2855 92.5704 23.851 91.8618 22.5423C91.8029 22.4343 91.7444 22.3259 91.686 22.2179C91.6742 22.1953 91.6629 22.1722 91.652 22.1491C91.7977 22.4178 91.941 22.6884 92.0867 22.9571C91.3178 21.3265 90.3895 19.7599 89.5315 18.1759C88.9734 17.1458 88.4157 16.1158 87.8575 15.0848C87.8566 15.0848 87.8566 15.0838 87.8556 15.0819C87.8401 15.0532 87.8245 15.0249 87.8085 14.9957C87.7821 14.9471 87.7439 14.8769 87.6939 14.784C87.6713 14.742 87.6482 14.6996 87.6256 14.6576C87.6124 14.6341 87.6001 14.611 87.586 14.5846C87.4403 14.3168 87.2956 14.0486 87.1499 13.7798C87.3889 14.2216 87.6058 14.6741 87.8089 15.1324C87.8731 15.2771 87.9386 15.4204 87.9989 15.567C88.0597 15.7136 88.1154 15.8617 88.1724 16.0097C88.2299 16.1577 88.2884 16.3062 88.3417 16.4552C88.3935 16.6009 88.4402 16.747 88.4892 16.8927C88.5368 17.0379 88.5849 17.1817 88.6297 17.3273C88.782 17.8539 88.8456 18.4343 89.1082 18.9137C89.0733 18.8491 89.0375 18.785 89.0021 18.7195C90.2076 24.0523 89.046 29.6114 86.6191 34.4303C86.0519 35.5565 85.415 36.6474 84.7225 37.7011C84.615 37.8632 83.6618 39.0932 83.7108 39.1667C83.7547 39.2313 83.7976 39.2964 83.84 39.361C84.4745 40.3123 85.1077 41.2632 85.7422 42.2155C86.636 43.5572 87.5303 44.8984 88.4242 46.2401C89.936 44.1615 91.264 41.8892 92.1852 39.4835C92.6397 38.2965 93.0343 37.092 93.3171 35.8521C93.5934 34.6292 93.897 33.239 93.8399 31.9822C93.8626 31.7964 93.8583 31.4853 93.8602 31.2566Z" fill="url(#paint7_linear)"/>
<path d="M80.8106 50.0973C79.7475 48.6731 78.6844 47.2498 77.6218 45.8261C77.2636 46.1457 76.9001 46.4588 76.5314 46.7671C67.9627 53.9785 56.8328 58.3779 45.6906 59.2731C36.8782 59.9808 27.1879 58.4576 20.1113 52.8009C22.443 54.6649 24.7752 56.5285 27.1069 58.392C29.2245 60.0845 31.4563 61.5105 33.9553 62.5779C39.0783 64.7629 44.7388 65.5455 50.2799 65.3602C60.872 65.0057 71.5201 61.2216 79.9502 54.7955C80.721 54.2081 81.4729 53.5971 82.2055 52.9621C82.5865 52.6317 82.7331 52.6722 82.4705 52.3196C81.9175 51.579 81.364 50.8379 80.8106 50.0973Z" fill="url(#paint8_linear)"/>
<path d="M94.6077 52.3045C96.0191 54.4792 97.4315 56.6544 98.843 58.8291C94.6341 57.2012 90.4256 55.5734 86.2158 53.9455C85.2753 53.5811 84.3348 53.2177 83.3933 52.8537C83.0756 52.7307 82.7371 52.6779 82.532 52.4026C81.0494 50.4169 79.5672 48.4312 78.085 46.4461C77.9309 46.2396 77.7772 46.0336 77.6226 45.8266C81.8164 47.4266 86.0102 49.0262 90.2041 50.6257C91.6716 51.1849 93.1396 51.7449 94.6077 52.3045Z" fill="url(#paint9_linear)"/>
<path d="M89.0017 18.72C90.2845 24.403 88.8985 30.2921 86.1491 35.3298C85.4778 36.5602 84.7264 37.7468 83.9117 38.8872C83.6751 39.2177 83.6953 39.1489 83.9155 39.4138C84.4515 40.0592 84.9866 40.7055 85.5221 41.3509C88.5393 44.9889 91.5578 48.6269 94.5745 52.2645C94.5849 52.2772 94.5962 52.2909 94.607 52.3041C90.4132 50.7045 86.2194 49.1054 82.0256 47.5049C80.9766 47.1052 79.9282 46.7059 78.8797 46.3061C78.5719 46.1882 78.264 46.0713 77.9557 45.9535C77.8774 45.9238 77.7082 45.8177 77.6215 45.8257C73.3729 49.6099 68.4588 52.6327 63.2349 54.8729C53.0506 59.2393 41.0985 60.9986 30.3098 57.9004C25.5597 56.5356 20.9953 54.1455 17.6152 50.483C14.1148 46.6875 12.2551 41.7012 12.3805 36.5395C12.6473 25.5703 20.77 16.2322 29.4217 10.3648C38.499 4.21034 49.6375 0.667086 60.6265 0.792015C70.5731 0.904215 81.944 4.37723 87.0642 13.6248C87.9476 15.221 88.5996 16.9413 89.0017 18.72C89.3803 20.3968 88.1456 14.9302 89.0017 18.72Z" fill="url(#paint10_linear)"/>
<path d="M86.9233 18.5153C88.1268 23.8467 86.8266 29.3719 84.247 34.0998C83.6167 35.2539 82.9124 36.3679 82.1472 37.4371C81.9252 37.7473 80.8829 38.9673 81.0898 39.2158C81.5919 39.8216 90.6315 48.8197 90.6315 48.8197C90.6315 48.8197 76.3275 43.9409 76.2459 43.9484C72.26 47.4988 67.6489 50.3354 62.747 52.437C53.1916 56.5342 41.9768 58.1842 31.8543 55.2773C27.3969 53.9969 23.1145 51.7544 19.9432 48.3172C16.6573 44.7565 14.9135 40.078 15.0304 35.2346C15.2808 24.9423 22.9019 16.1804 31.0203 10.6755C39.5372 4.90048 49.9887 1.57597 60.2984 1.69241C69.6313 1.79896 80.3011 5.05653 85.1055 13.7336C85.9347 15.2314 86.5461 16.8451 86.9233 18.5153C87.2787 20.088 86.1204 14.9584 86.9233 18.5153Z" fill="url(#paint11_radial)"/>
<path d="M86.6353 17.2388C86.6333 17.2311 86.6333 17.23 86.6353 17.2388V17.2388Z" fill="url(#paint12_radial)"/>
<path d="M47.0225 21.5L42.9475 33.9L38.9475 21.5H35.1975L31.0725 33.8L27.1225 21.5H22.9225L28.6725 39H32.9975L36.9725 27.15L40.8225 39H45.1725L50.8975 21.5H47.0225ZM53.1585 39L57.2085 39L57.2085 21.5H53.1585L53.1585 39ZM73.4116 21.5V32.125L64.7116 21.5H61.3616L61.3616 39H65.3616V28.375L74.0866 39H77.4116V21.5H73.4116Z" fill="white"/>
<defs>
<radialGradient id="paint0_radial" cx="0" cy="0" r="1" gradientUnits="userSpaceOnUse" gradientTransform="translate(51.4996 67.9569) scale(51.5001 11.5)">
<stop offset="0.0056"/>
<stop offset="0.2763" stop-color="#656667"/>
<stop offset="0.5712" stop-color="#CDCFD2"/>
<stop offset="0.703" stop-color="#F7F9FD"/>
</radialGradient>
<linearGradient id="paint1_linear" x1="87.8449" y1="15.0675" x2="87.8474" y2="15.0668" gradientUnits="userSpaceOnUse">
<stop offset="0.0121" stop-color="#A81F23"/>
<stop offset="0.2848" stop-color="#EF5D26"/>
<stop offset="0.5455" stop-color="#EB4024"/>
<stop offset="1" stop-color="#9D1D20"/>
</linearGradient>
<linearGradient id="paint2_linear" x1="87.8119" y1="15.0034" x2="87.8132" y2="15.003" gradientUnits="userSpaceOnUse">
<stop offset="0.0121" stop-color="#A81F23"/>
<stop offset="0.2848" stop-color="#EF5D26"/>
<stop offset="0.5455" stop-color="#EB4024"/>
<stop offset="1" stop-color="#9D1D20"/>
</linearGradient>
<linearGradient id="paint3_linear" x1="87.8242" y1="15.034" x2="87.8333" y2="15.0311" gradientUnits="userSpaceOnUse">
<stop offset="0.0121" stop-color="#A81F23"/>
<stop offset="0.2848" stop-color="#EF5D26"/>
<stop offset="0.5455" stop-color="#EB4024"/>
<stop offset="1" stop-color="#9D1D20"/>
</linearGradient>
<linearGradient id="paint4_linear" x1="87.8531" y1="15.0806" x2="87.8554" y2="15.0799" gradientUnits="userSpaceOnUse">
<stop offset="0.0121" stop-color="#A81F23"/>
<stop offset="0.2848" stop-color="#EF5D26"/>
<stop offset="0.5455" stop-color="#EB4024"/>
<stop offset="1" stop-color="#9D1D20"/>
</linearGradient>
<linearGradient id="paint5_linear" x1="87.3942" y1="14.4163" x2="87.6002" y2="14.3517" gradientUnits="userSpaceOnUse">
<stop offset="0.0121" stop-color="#A81F23"/>
<stop offset="0.2848" stop-color="#EF5D26"/>
<stop offset="0.5455" stop-color="#EB4024"/>
<stop offset="1" stop-color="#9D1D20"/>
</linearGradient>
<linearGradient id="paint6_linear" x1="93.8548" y1="31.2356" x2="93.8663" y2="31.232" gradientUnits="userSpaceOnUse">
<stop offset="0.0121" stop-color="#A81F23"/>
<stop offset="0.2848" stop-color="#EF5D26"/>
<stop offset="0.5455" stop-color="#EB4024"/>
<stop offset="1" stop-color="#9D1D20"/>
</linearGradient>
<linearGradient id="paint7_linear" x1="83.4469" y1="31.3716" x2="93.5549" y2="28.2005" gradientUnits="userSpaceOnUse">
<stop offset="0.0121" stop-color="#A81F23"/>
<stop offset="0.2848" stop-color="#EF5D26"/>
<stop offset="0.5455" stop-color="#EB4024"/>
<stop offset="1" stop-color="#9D1D20"/>
</linearGradient>
<linearGradient id="paint8_linear" x1="32.645" y1="60.8525" x2="79.0058" y2="46.3079" gradientUnits="userSpaceOnUse">
<stop offset="0.0121" stop-color="#A81F23"/>
<stop offset="0.2848" stop-color="#EF5D26"/>
<stop offset="0.5455" stop-color="#EB4024"/>
<stop offset="1" stop-color="#9D1D20"/>
</linearGradient>
<linearGradient id="paint9_linear" x1="82.7557" y1="54.7179" x2="95.255" y2="49.2636" gradientUnits="userSpaceOnUse">
<stop offset="0.0121" stop-color="#961B1F"/>
<stop offset="0.6303" stop-color="#E41E26"/>
<stop offset="1" stop-color="#B22024"/>
</linearGradient>
<linearGradient id="paint10_linear" x1="53.0373" y1="9.32916" x2="53.6434" y2="56.5999" gradientUnits="userSpaceOnUse">
<stop stop-color="#951B1E"/>
<stop offset="0.303" stop-color="#EC2427"/>
<stop offset="0.6182" stop-color="#ED6E25"/>
<stop offset="1" stop-color="#951B1E"/>
</linearGradient>
<radialGradient id="paint11_radial" cx="0" cy="0" r="1" gradientUnits="userSpaceOnUse" gradientTransform="translate(52.8283 29.2179) scale(33.0672)">
<stop stop-color="#F68720"/>
<stop offset="0.9939" stop-color="#981C1F"/>
</radialGradient>
<radialGradient id="paint12_radial" cx="0" cy="0" r="1" gradientUnits="userSpaceOnUse" gradientTransform="translate(86.6343 17.2358) scale(0.0024264)">
<stop stop-color="white"/>
<stop offset="1" stop-color="#D7DEE2"/>
</radialGradient>
</defs>
</svg>
