<svg width="425" height="178" viewBox="0 0 425 178" fill="none" xmlns="http://www.w3.org/2000/svg">
    <path d="M2 43C2 26.4315 15.4315 13 32 13H333.447C341.927 13 348.802 19.8745 348.802 28.3545C348.802 33.7658 351.65 38.7775 356.299 41.5465L409.447 73.2007C429.268 85.0062 428.902 113.834 408.787 125.132L354.974 155.357C351.162 157.499 348.802 161.531 348.802 165.904C348.802 172.584 343.386 178 336.706 178H32C15.4315 178 2 164.569 2 148V43Z" fill="#E2EEF9"/>
    <path d="M0 30C0 13.4315 13.4315 0 30 0H328.447C336.927 0 343.802 6.87447 343.802 15.3545C343.802 20.7658 346.65 25.7775 351.299 28.5465L404.447 60.2007C424.268 72.0062 423.902 100.834 403.787 112.132L349.974 142.357C346.162 144.499 343.802 148.531 343.802 152.904C343.802 159.584 338.386 165 331.706 165H30C13.4315 165 0 151.569 0 135V30Z" fill="white"/>
</svg>