<svg width="407" height="215" viewBox="0 0 407 215" fill="none" xmlns="http://www.w3.org/2000/svg">
    <path d="M405.727 208.315L405.727 214L34.248 214L34.248 1.00003L405.727 1.00072L405.727 6.68603C403.179 7.10596 401.11 9.10156 401.11 11.6896C401.11 14.2777 403.179 16.2733 405.727 16.6932L405.727 19.4602C403.179 19.88 401.11 21.8752 401.11 24.4645C401.11 27.0526 403.179 29.0482 405.727 29.4681L405.727 32.2344C403.179 32.6545 401.11 34.6508 401.11 37.2387C401.11 39.8268 403.179 41.8224 405.727 42.2423L405.727 45.0093C403.179 45.4291 401.11 47.4243 401.11 50.0136C401.11 52.6017 403.179 54.5973 405.727 55.0172L405.727 57.7835C403.179 58.2034 401.11 60.199 401.11 62.7871C401.11 65.3751 403.179 67.3707 405.727 67.7906L405.727 70.5577C403.179 70.9775 401.11 72.9725 401.11 75.5613C401.11 77.4756 402.241 79.0656 403.86 79.9341C387.682 81.2185 374.828 93.2653 374.828 108.158C374.828 122.594 386.919 134.331 402.393 136.203C401.6 137.068 401.11 138.184 401.11 139.439C401.11 142.027 403.179 144.022 405.727 144.442L405.727 147.209C403.179 147.629 401.11 149.624 401.11 152.213C401.11 154.802 403.179 156.797 405.727 157.217L405.727 159.983C403.179 160.403 401.11 162.398 401.11 164.988C401.11 167.576 403.179 169.571 405.727 169.991L405.727 172.758C403.179 173.178 401.11 175.174 401.11 177.762C401.11 180.35 403.179 182.346 405.727 182.766L405.727 185.533C403.179 185.952 401.11 187.948 401.11 190.537C401.11 193.125 403.179 195.121 405.727 195.54L405.727 198.308C403.179 198.727 401.11 200.723 401.11 203.311C401.11 205.899 403.179 207.895 405.727 208.315Z" fill="#FAF8F5" stroke="#5987C5" stroke-width="2"/>
    <path d="M-9.0656e-06 7.6032C2.61519 7.6032 4.73554 9.43256 4.73554 11.6883C4.73554 13.944 2.61519 15.7734 -8.70847e-06 15.7734L-8.50725e-06 20.3767C2.61519 20.3767 4.73554 22.2061 4.73554 24.4618C4.73554 26.7197 2.61519 28.5484 -8.15006e-06 28.5484L-7.9489e-06 33.1503C2.61519 33.1503 4.73554 34.9796 4.73554 37.2368C4.73554 39.4933 2.61519 41.3219 -7.59171e-06 41.3219L-7.39049e-06 45.9252C2.61519 45.9252 4.73554 47.7546 4.73554 50.0104C4.73554 52.2661 2.61519 54.0955 -7.03336e-06 54.0955L-6.83214e-06 58.6988C2.61519 58.6988 4.73554 60.5282 4.73554 62.7839C4.73554 65.0396 2.61519 66.869 -6.47501e-06 66.869L-6.27379e-06 71.4723C2.61519 71.4723 4.73554 73.3017 4.73554 75.5574C4.73554 77.8154 2.61519 79.644 -5.9166e-06 79.644L-5.86534e-06 80.8167C17.4979 80.8167 31.683 93.0545 31.683 108.152C31.683 122.955 18.0359 134.98 1.00982 135.443C3.13881 135.844 4.73555 137.474 4.73555 139.432C4.73555 141.688 2.61519 143.517 -3.12463e-06 143.517L-2.92341e-06 148.12C2.61519 148.12 4.73555 149.949 4.73555 152.205C4.73555 154.462 2.61519 156.291 -2.56625e-06 156.291L-2.36507e-06 160.894C2.61519 160.894 4.73555 162.723 4.73555 164.979C4.73555 167.236 2.61519 169.065 -2.0079e-06 169.065L-1.80672e-06 173.667C2.61519 173.667 4.73555 175.497 4.73555 177.753C4.73555 180.009 2.6152 181.838 -1.44955e-06 181.838L-1.24834e-06 186.441C2.6152 186.441 4.73555 188.271 4.73555 190.527C4.73555 192.784 2.6152 194.612 -8.91173e-07 194.612L-6.89956e-07 199.216C2.6152 199.216 4.73555 201.045 4.73555 203.301C4.73555 205.557 2.6152 207.387 -3.32792e-07 207.387L0 215L87.5516 215L87.5515 -3.827e-06L-9.39795e-06 0L-9.0656e-06 7.6032Z" fill="#5987C5"/>
</svg>