<svg width="41" height="44" viewBox="0 0 41 44" fill="none" xmlns="http://www.w3.org/2000/svg">
    <path d="M20.5 40.9302C31.8218 40.9302 41 31.7677 41 20.4651C41 9.16254 31.8218 0 20.5 0C9.17816 0 0 9.16254 0 20.4651C0 26.3178 2.46098 31.5966 6.40625 35.3266V44L14.35 39.9933C16.2914 40.6021 18.3573 40.9302 20.5 40.9302Z" fill="#5987C5"/>
    <path d="M27.6143 25.6719C28.6494 24.1777 29.167 22.5273 29.167 20.7207C29.167 18.3184 28.3174 16.2627 26.6182 14.5537C24.9092 12.8545 22.8535 12.0049 20.4512 12.0049C18.0586 12.0049 16.0078 12.8545 14.2988 14.5537C12.5996 16.2627 11.75 18.3184 11.75 20.7207C11.75 23.1133 12.5996 25.1641 14.2988 26.873C16.0078 28.5723 18.0586 29.4219 20.4512 29.4219C22.3945 29.4219 24.1377 28.8408 25.6807 27.6787L25.7393 27.6201L24.8457 26.7119L26.6621 24.8955L27.541 25.7744L27.6143 25.6719ZM29.3867 27.6201L31.6279 29.8467L29.7969 31.6777L27.585 29.4658L27.4971 29.5391C25.4365 31.1797 23.0879 32 20.4512 32C17.3457 32 14.6895 30.8965 12.4824 28.6895C10.2754 26.4824 9.17188 23.8262 9.17188 20.7207C9.17188 17.6055 10.2754 14.9443 12.4824 12.7373C14.6895 10.5303 17.3457 9.42676 20.4512 9.42676C23.5664 9.42676 26.2275 10.5303 28.4346 12.7373C30.6416 14.9443 31.7451 17.6055 31.7451 20.7207C31.7451 23.2402 30.9834 25.5059 29.46 27.5176L29.3867 27.6201Z" fill="white"/>
</svg>
